{"glyphs":{"0":{"ha":1014,"x_min":125,"x_max":889,"o":"m 889 139 q 878 85 889 111 q 848 41 867 60 q 804 11 829 22 q 750 0 779 0 l 264 0 q 210 11 235 0 q 165 41 184 22 q 136 85 146 60 q 125 139 125 111 l 125 833 q 136 887 125 862 q 165 931 146 913 q 210 961 184 950 q 264 972 235 972 l 750 972 q 804 961 779 972 q 848 931 829 950 q 878 887 867 913 q 889 833 889 862 l 889 139 m 264 833 l 264 139 l 750 139 l 750 833 l 264 833 z "},"1":{"ha":486,"x_min":41,"x_max":347,"o":"m 347 972 l 347 0 l 208 0 l 208 833 l 41 833 l 41 972 l 347 972 z "},"2":{"ha":958,"x_min":111,"x_max":847,"o":"m 250 833 l 250 708 l 111 708 l 111 833 q 122 887 111 862 q 152 931 133 913 q 196 961 171 950 q 250 972 222 972 l 690 972 q 744 961 719 972 q 788 931 770 950 q 818 887 807 913 q 829 833 829 862 l 829 656 q 824 605 829 627 q 807 565 819 583 q 777 532 795 547 q 732 505 758 518 l 250 279 l 250 139 l 708 139 l 708 264 l 847 264 l 847 0 l 111 0 l 111 256 q 117 307 111 284 q 134 347 123 329 q 164 379 146 364 q 208 406 183 393 l 690 632 l 690 833 l 250 833 z "},"3":{"ha":914,"x_min":69,"x_max":831,"o":"m 69 294 l 205 294 l 205 243 q 230 162 205 188 q 310 136 254 136 l 590 136 q 670 162 646 136 q 694 243 694 188 l 694 318 q 670 399 694 374 q 590 424 646 424 l 302 424 l 302 559 l 586 559 q 659 587 637 562 q 681 665 681 612 l 681 729 q 656 810 681 785 q 576 836 631 836 l 323 836 q 244 810 269 836 q 220 729 220 785 l 220 677 l 83 677 l 83 736 q 319 972 83 972 l 581 972 q 759 914 701 972 q 817 736 817 856 l 817 718 q 788 583 817 636 q 704 504 759 530 q 798 431 766 486 q 831 285 831 376 l 831 236 q 595 0 831 0 l 306 0 q 69 236 69 0 l 69 294 z "},"4":{"ha":843,"x_min":28,"x_max":802,"o":"m 28 335 l 507 972 l 671 972 l 671 335 l 802 335 l 802 201 l 671 201 l 671 0 l 532 0 l 532 201 l 28 201 l 28 335 m 532 335 l 532 804 l 179 335 l 532 335 z "},"5":{"ha":886,"x_min":69,"x_max":803,"o":"m 803 236 q 743 59 801 117 q 567 0 686 0 l 306 0 q 69 236 69 0 l 69 294 l 205 294 l 205 243 q 230 162 205 188 q 310 136 254 136 l 562 136 q 642 162 618 136 q 667 243 667 188 l 667 374 q 642 454 667 429 q 562 479 618 479 l 97 479 l 97 972 l 778 972 l 778 833 l 236 833 l 236 615 l 567 615 q 745 557 686 615 q 803 379 803 499 l 803 236 z "},"6":{"ha":972,"x_min":125,"x_max":847,"o":"m 125 833 q 136 887 125 862 q 165 931 146 913 q 210 961 184 950 q 264 972 235 972 l 708 972 q 762 961 736 972 q 806 931 787 950 q 836 887 825 913 q 847 833 847 862 l 847 708 l 708 708 l 708 833 l 264 833 l 264 555 l 708 555 q 762 545 736 555 q 806 515 787 534 q 836 470 825 496 q 847 416 847 445 l 847 139 q 836 85 847 111 q 806 41 825 60 q 762 11 787 22 q 708 0 736 0 l 264 0 q 210 11 235 0 q 165 41 184 22 q 136 85 146 60 q 125 139 125 111 l 125 833 m 264 416 l 264 139 l 708 139 l 708 416 l 264 416 z "},"7":{"ha":819,"x_min":56,"x_max":806,"o":"m 163 0 l 599 833 l 56 833 l 56 972 l 806 972 l 806 930 l 323 0 l 163 0 z "},"8":{"ha":956,"x_min":97,"x_max":859,"o":"m 614 559 q 686 587 665 562 q 708 665 708 612 l 708 729 q 684 810 708 785 q 604 836 659 836 l 351 836 q 272 810 296 836 q 248 729 248 785 l 248 665 q 270 587 248 612 q 342 559 292 562 l 614 559 m 618 136 q 698 162 673 136 q 722 243 722 188 l 722 318 q 698 399 722 374 q 618 424 673 424 l 338 424 q 258 399 282 424 q 233 318 233 374 l 233 243 q 258 162 233 188 q 338 136 282 136 l 618 136 m 334 0 q 97 236 97 0 l 97 285 q 130 431 97 376 q 224 504 162 486 q 140 583 169 530 q 111 718 111 636 l 111 736 q 347 972 111 972 l 608 972 q 844 736 844 972 l 844 718 q 815 583 844 636 q 732 504 787 530 q 826 431 793 486 q 859 285 859 376 l 859 236 q 623 0 859 0 l 334 0 z "},"9":{"ha":972,"x_min":125,"x_max":847,"o":"m 847 139 q 836 85 847 111 q 806 41 825 60 q 762 11 787 22 q 708 0 736 0 l 264 0 q 210 11 235 0 q 165 41 184 22 q 136 85 146 60 q 125 139 125 111 l 125 264 l 264 264 l 264 139 l 708 139 l 708 416 l 264 416 q 210 428 235 416 q 165 457 184 439 q 136 502 146 476 q 125 555 125 527 l 125 833 q 136 887 125 862 q 165 931 146 913 q 210 961 184 950 q 264 972 235 972 l 708 972 q 762 961 736 972 q 806 931 787 950 q 836 887 825 913 q 847 833 847 862 l 847 139 m 708 555 l 708 833 l 264 833 l 264 555 l 708 555 z "}," ":{"ha":416,"x_min":0,"x_max":0,"o":""},"#":{"ha":1069,"x_min":125,"x_max":945,"o":"m 485 972 l 449 734 l 693 734 l 729 972 l 848 972 l 812 734 l 945 734 l 945 615 l 794 615 l 755 357 l 945 357 l 945 237 l 737 237 l 703 0 l 583 0 l 618 237 l 374 237 l 339 0 l 220 0 l 254 237 l 125 237 l 125 357 l 272 357 l 311 615 l 125 615 l 125 734 l 329 734 l 366 972 l 485 972 m 392 357 l 636 357 l 675 615 l 431 615 l 392 357 z "},"$":{"ha":958,"x_min":97,"x_max":861,"o":"m 97 264 l 232 264 l 232 139 l 424 139 l 424 416 l 250 416 q 196 428 222 416 q 152 457 171 439 q 122 502 133 476 q 111 555 111 527 l 111 833 q 122 887 111 862 q 152 931 133 913 q 196 961 171 950 q 250 972 222 972 l 424 972 l 424 1111 l 549 1111 l 549 972 l 722 972 q 776 961 751 972 q 821 931 802 950 q 850 887 840 913 q 861 833 861 862 l 861 708 l 726 708 l 726 833 l 549 833 l 549 555 l 722 555 q 776 545 751 555 q 821 515 802 534 q 850 470 840 496 q 861 416 861 445 l 861 139 q 850 85 861 111 q 821 41 840 60 q 776 11 802 22 q 722 0 751 0 l 549 0 l 549 -139 l 424 -139 l 424 0 l 236 0 q 182 11 208 0 q 138 41 157 22 q 108 85 119 60 q 97 139 97 111 l 97 264 m 245 555 l 424 555 l 424 833 l 245 833 l 245 555 m 549 416 l 549 139 l 726 139 l 726 416 l 549 416 z "},"%":{"ha":1332,"x_min":97,"x_max":1235,"o":"m 530 610 q 519 556 530 581 q 490 511 509 530 q 446 481 471 492 q 392 471 420 471 l 236 471 q 182 481 208 471 q 138 511 157 492 q 108 556 119 530 q 97 610 97 581 l 97 833 q 108 887 97 862 q 138 931 119 913 q 182 961 157 950 q 236 972 208 972 l 392 972 q 446 961 420 972 q 490 931 471 950 q 519 887 509 913 q 530 833 530 862 l 530 610 m 256 0 l 949 972 l 1076 972 l 383 0 l 256 0 m 216 852 l 216 590 l 411 590 l 411 852 l 216 852 m 1235 139 q 1224 85 1235 111 q 1194 41 1213 60 q 1150 11 1175 22 q 1096 0 1124 0 l 940 0 q 886 11 911 0 q 842 41 861 22 q 812 85 823 60 q 802 139 802 111 l 802 363 q 812 416 802 391 q 842 460 823 441 q 886 490 861 479 q 940 501 911 501 l 1096 501 q 1150 490 1124 501 q 1194 460 1175 479 q 1224 416 1213 441 q 1235 363 1235 391 l 1235 139 m 921 382 l 921 119 l 1116 119 l 1116 382 l 921 382 z "},"&":{"ha":1043,"x_min":97,"x_max":974,"o":"m 974 0 l 930 0 q 734 81 791 0 q 539 0 677 0 l 334 0 q 97 236 97 0 l 97 285 q 130 431 97 376 q 224 504 162 486 q 140 583 169 530 q 111 718 111 636 l 111 736 q 347 972 111 972 l 553 972 q 731 914 673 972 q 789 736 789 856 l 789 677 l 653 677 l 653 729 q 629 810 653 785 q 549 836 604 836 l 351 836 q 272 810 296 836 q 248 729 248 785 l 248 665 q 270 587 248 612 q 342 559 292 562 l 974 559 l 974 424 l 803 424 l 803 243 q 827 162 803 188 q 907 136 852 136 l 974 136 l 974 0 m 562 136 q 642 162 618 136 q 667 243 667 188 l 667 424 l 338 424 q 258 399 282 424 q 233 318 233 374 l 233 243 q 258 162 233 188 q 338 136 282 136 l 562 136 l 562 136 z "},"'":{"ha":403,"x_min":111,"x_max":292,"o":"m 248 517 l 155 517 l 111 825 l 111 972 l 292 972 l 292 825 l 248 517 z "},"(":{"ha":541,"x_min":97,"x_max":457,"o":"m 457 -160 l 457 -292 l 437 -292 q 297 -268 360 -292 q 190 -199 234 -243 q 121 -92 145 -155 q 97 49 97 -28 l 97 701 q 121 842 97 779 q 190 949 145 905 q 297 1018 234 994 q 437 1042 360 1042 l 457 1042 l 457 909 l 437 909 q 353 896 390 909 q 290 856 315 882 q 250 793 264 830 q 236 708 236 755 l 236 41 q 289 -107 236 -55 q 437 -160 341 -160 l 457 -160 z "},")":{"ha":541,"x_min":83,"x_max":443,"o":"m 103 -160 q 252 -107 199 -160 q 304 41 304 -55 l 304 708 q 291 793 304 755 q 251 856 277 830 q 188 896 225 882 q 103 909 151 909 l 83 909 l 83 1042 l 103 1042 q 243 1018 180 1042 q 351 949 307 994 q 419 842 395 905 q 443 701 443 779 l 443 49 q 419 -92 443 -28 q 351 -199 395 -155 q 243 -268 307 -243 q 103 -292 180 -292 l 83 -292 l 83 -160 l 103 -160 z "},"*":{"ha":762,"x_min":83,"x_max":679,"o":"m 256 406 l 163 473 l 301 652 l 83 714 l 119 823 l 332 746 l 323 972 l 439 972 l 431 746 l 643 823 l 679 714 l 461 652 l 600 473 l 507 406 l 380 595 l 256 406 z "},"+":{"ha":981,"x_min":111,"x_max":869,"o":"m 557 771 l 557 458 l 869 458 l 869 325 l 557 325 l 557 12 l 424 12 l 424 325 l 111 325 l 111 458 l 424 458 l 424 771 l 557 771 z "},",":{"ha":425,"x_min":111,"x_max":314,"o":"m 210 -207 l 111 -207 l 211 0 l 111 0 l 111 203 l 314 203 l 314 0 l 210 -207 z "},"-":{"ha":547,"x_min":111,"x_max":436,"o":"m 111 458 l 436 458 l 436 325 l 111 325 l 111 458 z "},".":{"ha":425,"x_min":111,"x_max":314,"o":"m 111 203 l 314 203 l 314 0 l 111 0 l 111 203 z "},"/":{"ha":614,"x_min":56,"x_max":558,"o":"m 56 -69 l 424 1042 l 558 1042 l 183 -69 l 56 -69 z "},":":{"ha":425,"x_min":111,"x_max":314,"o":"m 111 203 l 314 203 l 314 0 l 111 0 l 111 203 m 111 722 l 314 722 l 314 519 l 111 519 l 111 722 z "},";":{"ha":425,"x_min":111,"x_max":314,"o":"m 210 -207 l 111 -207 l 211 0 l 111 0 l 111 203 l 314 203 l 314 0 l 210 -207 m 111 722 l 314 722 l 314 519 l 111 519 l 111 722 z "},"<":{"ha":925,"x_min":56,"x_max":814,"o":"m 56 468 l 814 793 l 814 652 l 205 396 l 814 142 l 814 0 l 56 325 l 56 468 z "},"=":{"ha":981,"x_min":111,"x_max":869,"o":"m 111 619 l 869 619 l 869 486 l 111 486 l 111 619 m 111 297 l 869 297 l 869 164 l 111 164 l 111 297 z "},">":{"ha":925,"x_min":111,"x_max":869,"o":"m 869 325 l 111 0 l 111 142 l 718 396 l 111 652 l 111 793 l 869 468 l 869 325 z "},"?":{"ha":778,"x_min":83,"x_max":694,"o":"m 279 453 q 285 504 279 481 q 302 544 291 526 q 333 576 314 562 q 376 603 351 591 l 555 689 l 555 833 l 222 833 l 222 708 l 83 708 l 83 833 q 94 887 83 862 q 124 931 105 913 q 169 961 143 950 q 222 972 194 972 l 555 972 q 609 961 584 972 q 654 931 635 950 q 684 887 673 913 q 694 833 694 862 l 694 714 q 689 663 694 686 q 672 623 684 641 q 642 591 661 605 q 597 564 623 576 l 418 478 l 418 361 l 279 361 l 279 453 l 279 453 m 252 203 l 454 203 l 454 0 l 252 0 l 252 203 z "},"@":{"ha":1472,"x_min":125,"x_max":1348,"o":"m 437 547 q 448 599 437 575 q 476 642 458 623 q 519 670 494 660 q 571 681 543 681 l 754 681 q 805 671 781 681 q 847 643 829 661 q 876 603 865 626 q 888 553 887 579 l 888 681 l 1021 681 l 1021 134 l 1214 134 l 1214 637 q 1200 722 1214 685 q 1161 786 1187 760 q 1097 825 1135 812 q 1013 839 1060 839 l 460 839 q 375 825 412 839 q 312 786 338 812 q 272 722 286 760 q 258 637 258 685 l 258 49 q 272 -38 258 1 q 311 -103 286 -76 q 374 -144 337 -130 q 460 -158 412 -158 l 1182 -158 q 1171 -209 1182 -184 q 1142 -252 1160 -233 q 1099 -281 1124 -270 q 1048 -292 1075 -292 l 465 -292 q 325 -268 388 -292 q 217 -199 262 -243 q 149 -92 173 -155 q 125 49 125 -28 l 125 632 q 149 772 125 709 q 217 880 173 836 q 325 948 262 924 q 465 972 388 972 l 1007 972 q 1147 948 1084 972 q 1255 880 1211 924 q 1323 772 1299 836 q 1348 632 1348 709 l 1348 134 q 1337 81 1348 106 q 1308 39 1326 57 q 1266 11 1290 21 q 1214 0 1242 0 l 1021 0 q 971 9 994 0 q 930 36 947 19 q 901 75 912 52 q 888 122 890 97 q 874 75 886 97 q 844 36 862 52 q 803 9 826 19 q 754 0 780 0 l 571 0 q 519 11 543 0 q 476 39 494 21 q 448 81 458 57 q 437 134 437 106 l 437 547 m 888 547 l 571 547 l 571 134 l 888 134 l 888 547 z "},"A":{"ha":972,"x_min":41,"x_max":930,"o":"m 555 972 l 930 0 l 791 0 l 705 224 l 267 224 l 180 0 l 41 0 l 416 972 l 555 972 m 319 363 l 652 363 l 486 791 l 319 363 z "},"B":{"ha":977,"x_min":125,"x_max":893,"o":"m 758 507 q 814 480 789 498 q 857 435 839 463 q 884 370 874 408 q 893 285 893 333 l 893 236 q 657 0 893 0 l 125 0 l 125 972 l 629 972 q 865 736 865 972 l 865 718 q 839 584 865 636 q 758 507 813 532 m 261 424 l 261 136 l 653 136 q 732 162 708 136 q 757 243 757 188 l 757 318 q 732 399 757 374 q 653 424 708 424 l 261 424 m 261 836 l 261 559 l 635 559 q 707 587 685 562 q 729 665 729 612 l 729 729 q 705 810 729 785 q 625 836 680 836 l 261 836 z "},"C":{"ha":1028,"x_min":125,"x_max":930,"o":"m 125 833 q 136 887 125 862 q 165 931 146 913 q 210 961 184 950 q 264 972 235 972 l 791 972 q 845 961 820 972 q 890 931 871 950 q 920 887 909 913 q 930 833 930 862 l 930 708 l 791 708 l 791 833 l 264 833 l 264 139 l 791 139 l 791 264 l 930 264 l 930 139 q 920 85 930 111 q 890 41 909 60 q 845 11 871 22 q 791 0 820 0 l 264 0 q 210 11 235 0 q 165 41 184 22 q 136 85 146 60 q 125 139 125 111 l 125 833 z "},"D":{"ha":1057,"x_min":125,"x_max":960,"o":"m 619 139 q 768 191 716 139 q 821 340 821 243 l 821 632 q 807 717 821 680 q 767 780 793 754 q 704 820 741 806 q 619 833 667 833 l 264 833 l 264 139 l 619 139 m 125 0 l 125 972 l 619 972 q 760 948 697 972 q 867 880 823 924 q 936 772 911 836 q 960 632 960 709 l 960 340 q 936 200 960 263 q 867 93 911 137 q 760 24 823 48 q 619 0 697 0 l 125 0 z "},"E":{"ha":917,"x_min":125,"x_max":833,"o":"m 125 972 l 833 972 l 833 833 l 264 833 l 264 555 l 750 555 l 750 416 l 264 416 l 264 139 l 833 139 l 833 0 l 125 0 l 125 972 z "},"F":{"ha":903,"x_min":125,"x_max":833,"o":"m 125 972 l 833 972 l 833 833 l 264 833 l 264 555 l 750 555 l 750 416 l 264 416 l 264 0 l 125 0 l 125 972 z "},"G":{"ha":1055,"x_min":125,"x_max":930,"o":"m 125 833 q 136 887 125 862 q 165 931 146 913 q 210 961 184 950 q 264 972 235 972 l 791 972 q 845 961 820 972 q 890 931 871 950 q 920 887 909 913 q 930 833 930 862 l 930 708 l 791 708 l 791 833 l 264 833 l 264 139 l 791 139 l 791 375 l 528 375 l 528 514 l 930 514 l 930 139 q 920 85 930 111 q 890 41 909 60 q 845 11 871 22 q 791 0 820 0 l 264 0 q 210 11 235 0 q 165 41 184 22 q 136 85 146 60 q 125 139 125 111 l 125 833 z "},"H":{"ha":1084,"x_min":125,"x_max":960,"o":"m 960 972 l 960 0 l 821 0 l 821 416 l 264 416 l 264 0 l 125 0 l 125 972 l 264 972 l 264 555 l 821 555 l 821 972 l 960 972 z "},"I":{"ha":389,"x_min":125,"x_max":264,"o":"m 264 972 l 264 0 l 125 0 l 125 972 l 264 972 z "},"J":{"ha":893,"x_min":97,"x_max":768,"o":"m 97 306 l 236 306 l 236 139 l 629 139 l 629 972 l 768 972 l 768 139 q 757 85 768 111 q 727 41 746 60 q 683 11 709 22 q 629 0 658 0 l 236 0 q 182 11 208 0 q 138 41 157 22 q 108 85 119 60 q 97 139 97 111 l 97 306 z "},"K":{"ha":946,"x_min":125,"x_max":945,"o":"m 264 972 l 264 553 l 728 972 l 924 972 l 397 496 l 945 0 l 749 0 l 264 437 l 264 0 l 125 0 l 125 972 l 264 972 z "},"L":{"ha":806,"x_min":125,"x_max":764,"o":"m 264 972 l 264 139 l 764 139 l 764 0 l 125 0 l 125 972 l 264 972 z "},"M":{"ha":1295,"x_min":125,"x_max":1169,"o":"m 627 0 l 264 713 l 264 0 l 125 0 l 125 972 l 277 972 l 647 240 l 1018 972 l 1169 972 l 1169 0 l 1031 0 l 1031 713 l 668 0 l 627 0 z "},"N":{"ha":1112,"x_min":125,"x_max":987,"o":"m 264 0 l 125 0 l 125 972 l 264 972 l 848 218 l 848 972 l 987 972 l 987 0 l 848 0 l 264 754 l 264 0 z "},"O":{"ha":1083,"x_min":125,"x_max":958,"o":"m 958 139 q 947 85 958 111 q 918 41 937 60 q 873 11 899 22 q 819 0 848 0 l 264 0 q 210 11 235 0 q 165 41 184 22 q 136 85 146 60 q 125 139 125 111 l 125 833 q 136 887 125 862 q 165 931 146 913 q 210 961 184 950 q 264 972 235 972 l 819 972 q 873 961 848 972 q 918 931 899 950 q 947 887 937 913 q 958 833 958 862 l 958 139 m 264 833 l 264 139 l 819 139 l 819 833 l 264 833 z "},"P":{"ha":962,"x_min":125,"x_max":893,"o":"m 125 0 l 125 972 l 657 972 q 893 736 893 972 l 893 597 q 657 361 893 361 l 264 361 l 264 0 l 125 0 m 264 500 l 650 500 q 730 524 705 500 q 754 604 754 549 l 754 729 q 730 809 754 785 q 650 833 705 833 l 264 833 l 264 500 z "},"Q":{"ha":1083,"x_min":125,"x_max":958,"o":"m 958 139 q 947 85 958 111 q 918 41 937 60 q 873 11 899 22 q 819 0 848 0 l 611 0 l 611 -180 l 472 -180 l 472 0 l 264 0 q 210 11 235 0 q 165 41 184 22 q 136 85 146 60 q 125 139 125 111 l 125 833 q 136 887 125 862 q 165 931 146 913 q 210 961 184 950 q 264 972 235 972 l 819 972 q 873 961 848 972 q 918 931 899 950 q 947 887 937 913 q 958 833 958 862 l 958 139 m 611 252 l 611 139 l 819 139 l 819 833 l 264 833 l 264 139 l 472 139 l 472 252 l 611 252 z "},"R":{"ha":1000,"x_min":125,"x_max":903,"o":"m 893 625 q 720 393 893 422 l 903 0 l 749 0 l 568 389 l 264 389 l 264 0 l 125 0 l 125 972 l 657 972 q 893 736 893 972 l 893 625 m 264 528 l 650 528 q 730 552 705 528 q 754 632 754 576 l 754 729 q 730 809 754 785 q 650 833 705 833 l 264 833 l 264 528 z "},"S":{"ha":1000,"x_min":111,"x_max":875,"o":"m 264 416 q 210 428 235 416 q 165 457 184 439 q 136 502 146 476 q 125 555 125 527 l 125 833 q 136 887 125 862 q 165 931 146 913 q 210 961 184 950 q 264 972 235 972 l 736 972 q 790 961 764 972 q 834 931 815 950 q 864 887 853 913 q 875 833 875 862 l 875 708 l 736 708 l 736 833 l 264 833 l 264 555 l 736 555 q 790 545 764 555 q 834 515 815 534 q 864 470 853 496 q 875 416 875 445 l 875 139 q 864 85 875 111 q 834 41 853 60 q 790 11 815 22 q 736 0 764 0 l 250 0 q 196 11 222 0 q 152 41 171 22 q 122 85 133 60 q 111 139 111 111 l 111 264 l 250 264 l 250 139 l 736 139 l 736 416 l 264 416 z "},"T":{"ha":861,"x_min":41,"x_max":819,"o":"m 41 972 l 819 972 l 819 833 l 500 833 l 500 0 l 361 0 l 361 833 l 41 833 l 41 972 z "},"U":{"ha":1083,"x_min":125,"x_max":958,"o":"m 125 972 l 264 972 l 264 139 l 819 139 l 819 972 l 958 972 l 958 139 q 947 85 958 111 q 918 41 937 60 q 873 11 899 22 q 819 0 848 0 l 264 0 q 210 11 235 0 q 165 41 184 22 q 136 85 146 60 q 125 139 125 111 l 125 972 z "},"V":{"ha":986,"x_min":41,"x_max":945,"o":"m 416 0 l 41 972 l 191 972 l 493 172 l 796 972 l 945 972 l 570 0 l 416 0 z "},"W":{"ha":1361,"x_min":41,"x_max":1320,"o":"m 319 0 l 41 972 l 180 972 l 396 199 l 611 972 l 750 972 l 965 199 l 1181 972 l 1320 972 l 1042 0 l 889 0 l 681 729 l 472 0 l 319 0 z "},"X":{"ha":954,"x_min":41,"x_max":913,"o":"m 216 972 l 476 608 l 737 972 l 905 972 l 561 490 l 913 0 l 745 0 l 476 374 l 210 0 l 41 0 l 393 490 l 49 972 l 216 972 z "},"Y":{"ha":945,"x_min":28,"x_max":917,"o":"m 189 972 l 472 518 l 755 972 l 917 972 l 542 386 l 542 0 l 403 0 l 403 386 l 28 972 l 189 972 z "},"Z":{"ha":950,"x_min":83,"x_max":867,"o":"m 103 972 l 867 972 l 867 930 l 315 139 l 867 139 l 867 0 l 83 0 l 83 41 l 635 833 l 103 833 l 103 972 z "},"[":{"ha":568,"x_min":125,"x_max":485,"o":"m 125 1042 l 485 1042 l 485 909 l 264 909 l 264 -160 l 485 -160 l 485 -292 l 125 -292 l 125 1042 z "},"\\":{"ha":614,"x_min":56,"x_max":558,"o":"m 431 -69 l 56 1042 l 191 1042 l 558 -69 l 431 -69 z "},"]":{"ha":568,"x_min":83,"x_max":443,"o":"m 304 909 l 83 909 l 83 1042 l 443 1042 l 443 -292 l 83 -292 l 83 -160 l 304 -160 l 304 909 z "},"^":{"ha":775,"x_min":56,"x_max":720,"o":"m 457 972 l 720 558 l 581 558 l 387 871 l 195 558 l 56 558 l 318 972 l 457 972 z "},"_":{"ha":861,"x_min":-1,"x_max":863,"o":"m -1 -292 l 863 -292 l 863 -397 l -1 -397 l -1 -292 z "},"`":{"ha":524,"x_min":83,"x_max":440,"o":"m 440 847 l 313 847 l 83 1000 l 286 1000 l 440 847 z "},"a":{"ha":833,"x_min":111,"x_max":722,"o":"m 111 315 q 122 367 111 343 q 150 410 132 391 q 193 438 168 428 q 244 449 217 449 l 589 449 l 589 589 l 153 589 l 153 722 l 589 722 q 641 712 616 722 q 683 683 665 701 q 712 641 701 665 q 722 589 722 616 l 722 0 l 589 0 l 589 122 q 575 75 587 97 q 546 36 564 52 q 505 9 528 19 q 456 0 481 0 l 244 0 q 193 11 217 0 q 150 39 168 21 q 122 81 132 57 q 111 134 111 106 l 111 315 m 244 134 l 589 134 l 589 315 l 244 315 l 244 134 z "},"b":{"ha":861,"x_min":111,"x_max":750,"o":"m 750 134 q 740 81 750 106 q 711 39 729 57 q 669 11 693 21 q 616 0 644 0 l 244 0 q 193 11 217 0 q 150 39 168 21 q 122 81 132 57 q 111 134 111 106 l 111 1000 l 244 1000 l 244 595 q 256 645 245 621 q 285 685 267 668 q 327 712 303 703 q 378 722 351 722 l 616 722 q 669 712 644 722 q 711 683 693 701 q 740 641 729 665 q 750 589 750 616 l 750 134 m 244 589 l 244 134 l 616 134 l 616 589 l 244 589 z "},"c":{"ha":833,"x_min":111,"x_max":722,"o":"m 244 589 l 244 134 l 589 134 l 589 256 l 722 256 l 722 134 q 712 81 722 106 q 683 39 701 57 q 641 11 665 21 q 589 0 616 0 l 244 0 q 193 11 217 0 q 150 39 168 21 q 122 81 132 57 q 111 134 111 106 l 111 589 q 122 641 111 616 q 150 683 132 665 q 193 712 168 701 q 244 722 217 722 l 589 722 q 641 712 616 722 q 683 683 665 701 q 712 641 701 665 q 722 589 722 616 l 722 467 l 589 467 l 589 589 l 244 589 z "},"d":{"ha":861,"x_min":111,"x_max":750,"o":"m 111 589 q 122 641 111 616 q 150 683 132 665 q 193 712 168 701 q 244 722 217 722 l 616 722 l 616 1000 l 750 1000 l 750 0 l 616 0 l 616 122 q 603 75 614 97 q 573 36 591 52 q 532 9 555 19 q 484 0 509 0 l 244 0 q 193 11 217 0 q 150 39 168 21 q 122 81 132 57 q 111 134 111 106 l 111 589 m 244 134 l 616 134 l 616 589 l 244 589 l 244 134 z "},"e":{"ha":833,"x_min":111,"x_max":722,"o":"m 722 293 l 244 293 l 244 134 l 722 134 l 722 0 l 244 0 q 193 11 217 0 q 150 39 168 21 q 122 81 132 57 q 111 134 111 106 l 111 589 q 122 641 111 616 q 150 683 132 665 q 193 712 168 701 q 244 722 217 722 l 589 722 q 641 712 616 722 q 683 683 665 701 q 712 641 701 665 q 722 589 722 616 l 722 293 m 244 589 l 244 427 l 589 427 l 589 589 l 244 589 z "},"f":{"ha":686,"x_min":69,"x_max":616,"o":"m 379 867 l 379 722 l 616 722 l 616 589 l 379 589 l 379 0 l 245 0 l 245 589 l 69 589 l 69 722 l 245 722 l 245 867 q 256 919 245 895 q 285 961 267 943 q 328 990 303 979 q 379 1000 352 1000 l 616 1000 l 616 867 l 379 867 z "},"g":{"ha":861,"x_min":111,"x_max":750,"o":"m 111 589 q 122 641 111 616 q 150 683 132 665 q 193 712 168 701 q 244 722 217 722 l 484 722 q 534 712 510 722 q 575 685 557 703 q 605 645 593 668 q 616 595 616 621 l 616 722 l 750 722 l 750 -158 q 740 -210 750 -186 q 711 -253 729 -235 q 669 -281 693 -271 q 616 -292 644 -292 l 195 -292 l 195 -158 l 616 -158 l 616 28 l 244 28 q 193 38 217 28 q 150 67 168 49 q 122 109 132 85 q 111 161 111 134 l 111 589 m 616 161 l 616 589 l 244 589 l 244 161 l 616 161 z "},"h":{"ha":861,"x_min":111,"x_max":750,"o":"m 750 0 l 616 0 l 616 589 l 244 589 l 244 0 l 111 0 l 111 1000 l 244 1000 l 244 595 q 256 645 245 621 q 285 685 267 668 q 327 712 303 703 q 378 722 351 722 l 616 722 q 669 712 644 722 q 711 683 693 701 q 740 641 729 665 q 750 589 750 616 l 750 0 z "},"i":{"ha":370,"x_min":111,"x_max":258,"o":"m 252 722 l 252 0 l 118 0 l 118 722 l 252 722 m 111 1000 l 258 1000 l 258 861 l 111 861 l 111 1000 z "},"j":{"ha":370,"x_min":14,"x_max":258,"o":"m 118 -158 l 118 722 l 252 722 l 252 -158 q 241 -210 252 -186 q 213 -253 231 -235 q 170 -281 195 -271 q 118 -292 146 -292 l 14 -292 l 14 -158 l 118 -158 m 111 1000 l 258 1000 l 258 861 l 111 861 l 111 1000 z "},"k":{"ha":762,"x_min":111,"x_max":777,"o":"m 589 0 l 244 309 l 244 0 l 111 0 l 111 1000 l 244 1000 l 244 437 l 561 722 l 749 722 l 361 374 l 777 0 l 589 0 z "},"l":{"ha":355,"x_min":111,"x_max":244,"o":"m 244 1000 l 244 0 l 111 0 l 111 1000 l 244 1000 z "},"m":{"ha":1234,"x_min":111,"x_max":1122,"o":"m 684 589 l 684 0 l 550 0 l 550 589 l 244 589 l 244 0 l 111 0 l 111 722 l 244 722 l 244 595 q 256 645 245 621 q 285 685 267 668 q 327 712 303 703 q 378 722 351 722 l 550 722 q 600 712 576 722 q 642 685 624 703 q 672 645 661 668 q 684 595 683 621 q 695 645 685 621 q 724 685 706 668 q 766 712 742 703 q 817 722 789 722 l 989 722 q 1041 712 1017 722 q 1083 683 1065 701 q 1112 641 1101 665 q 1122 589 1122 616 l 1122 0 l 989 0 l 989 589 l 684 589 z "},"n":{"ha":861,"x_min":111,"x_max":750,"o":"m 750 0 l 616 0 l 616 589 l 244 589 l 244 0 l 111 0 l 111 722 l 244 722 l 244 595 q 256 645 245 621 q 285 685 267 668 q 327 712 303 703 q 378 722 351 722 l 616 722 q 669 712 644 722 q 711 683 693 701 q 740 641 729 665 q 750 589 750 616 l 750 0 z "},"o":{"ha":847,"x_min":111,"x_max":736,"o":"m 736 134 q 725 81 736 106 q 697 39 715 57 q 655 11 679 21 q 603 0 631 0 l 244 0 q 193 11 217 0 q 150 39 168 21 q 122 81 132 57 q 111 134 111 106 l 111 589 q 122 641 111 616 q 150 683 132 665 q 193 712 168 701 q 244 722 217 722 l 603 722 q 655 712 631 722 q 697 683 679 701 q 725 641 715 665 q 736 589 736 616 l 736 134 m 244 589 l 244 134 l 603 134 l 603 589 l 244 589 z "},"p":{"ha":861,"x_min":111,"x_max":750,"o":"m 750 134 q 740 81 750 106 q 711 39 729 57 q 669 11 693 21 q 616 0 644 0 l 244 0 l 244 -292 l 111 -292 l 111 722 l 244 722 l 244 600 q 258 648 246 626 q 287 687 269 670 q 328 713 304 703 q 378 722 351 722 l 616 722 q 669 712 644 722 q 711 683 693 701 q 740 641 729 665 q 750 589 750 616 l 750 134 m 616 134 l 616 589 l 244 589 l 244 134 l 616 134 z "},"q":{"ha":861,"x_min":111,"x_max":750,"o":"m 111 589 q 122 641 111 616 q 150 683 132 665 q 193 712 168 701 q 244 722 217 722 l 616 722 q 669 712 644 722 q 711 683 693 701 q 740 641 729 665 q 750 589 750 616 l 750 -292 l 616 -292 l 616 127 q 605 78 616 101 q 575 38 593 55 q 534 10 557 20 q 484 0 510 0 l 244 0 q 193 11 217 0 q 150 39 168 21 q 122 81 132 57 q 111 134 111 106 l 111 589 m 616 134 l 616 589 l 244 589 l 244 134 l 616 134 z "},"r":{"ha":708,"x_min":111,"x_max":653,"o":"m 244 589 l 244 0 l 111 0 l 111 722 l 244 722 l 244 595 q 256 645 245 621 q 285 685 267 668 q 327 712 303 703 q 378 722 351 722 l 519 722 q 571 712 547 722 q 614 683 595 701 q 643 641 632 665 q 653 589 653 616 l 653 467 l 519 467 l 519 589 l 244 589 z "},"s":{"ha":778,"x_min":97,"x_max":681,"o":"m 547 134 l 547 301 l 231 301 q 178 312 203 301 q 136 340 154 322 q 107 382 118 358 q 97 435 97 407 l 97 589 q 107 641 97 616 q 136 683 118 665 q 178 712 154 701 q 231 722 203 722 l 653 722 l 653 589 l 231 589 l 231 435 l 547 435 q 599 424 575 435 q 642 396 623 414 q 670 353 660 378 q 681 301 681 329 l 681 134 q 670 81 681 106 q 642 39 660 57 q 599 11 623 21 q 547 0 575 0 l 97 0 l 97 134 l 547 134 z "},"t":{"ha":728,"x_min":69,"x_max":616,"o":"m 69 722 l 245 722 l 245 945 l 379 945 l 379 722 l 616 722 l 616 589 l 379 589 l 379 134 l 616 134 l 616 0 l 379 0 q 328 11 352 0 q 285 39 303 21 q 256 81 267 57 q 245 134 245 106 l 245 589 l 69 589 l 69 722 z "},"u":{"ha":861,"x_min":111,"x_max":750,"o":"m 111 722 l 244 722 l 244 134 l 616 134 l 616 722 l 750 722 l 750 0 l 616 0 l 616 122 q 603 75 614 97 q 573 36 591 52 q 532 9 555 19 q 484 0 509 0 l 244 0 q 193 11 217 0 q 150 39 168 21 q 122 81 132 57 q 111 134 111 106 l 111 722 z "},"v":{"ha":772,"x_min":28,"x_max":745,"o":"m 317 0 l 28 722 l 167 722 l 386 160 l 606 722 l 745 722 l 456 0 l 317 0 z "},"w":{"ha":1122,"x_min":28,"x_max":1095,"o":"m 261 0 l 28 722 l 163 722 l 334 178 l 493 722 l 629 722 l 789 178 l 960 722 l 1095 722 l 861 0 l 722 0 l 561 530 l 400 0 l 261 0 z "},"x":{"ha":794,"x_min":41,"x_max":753,"o":"m 741 722 l 478 370 l 753 0 l 591 0 l 397 261 l 203 0 l 41 0 l 317 370 l 54 722 l 215 722 l 397 478 l 579 722 l 741 722 z "},"y":{"ha":758,"x_min":28,"x_max":730,"o":"m 160 -292 l 311 65 l 28 722 l 168 722 l 379 225 l 590 722 l 730 722 l 293 -292 l 160 -292 z "},"z":{"ha":778,"x_min":83,"x_max":694,"o":"m 97 722 l 694 722 l 694 686 l 310 134 l 694 134 l 694 0 l 83 0 l 83 36 l 468 589 l 97 589 l 97 722 z "},"{":{"ha":539,"x_min":28,"x_max":456,"o":"m 456 -160 l 456 -292 l 436 -292 q 319 -273 372 -292 q 228 -220 266 -255 q 170 -136 191 -186 q 150 -22 150 -86 q 152 29 150 1 q 157 84 155 57 q 162 137 159 112 q 164 179 164 161 q 157 243 164 218 q 134 282 149 268 q 93 303 118 297 q 33 309 68 309 l 28 309 l 28 441 l 33 441 q 93 447 68 441 q 134 468 118 453 q 157 507 149 482 q 164 571 164 532 q 162 613 164 589 q 157 665 159 637 q 152 720 155 692 q 150 772 150 748 q 170 886 150 836 q 228 970 191 936 q 319 1023 266 1005 q 436 1042 372 1042 l 456 1042 l 456 909 l 436 909 q 327 874 365 909 q 289 770 289 840 q 291 724 289 749 q 296 674 293 700 q 300 624 298 649 q 302 576 302 599 q 281 454 302 505 q 210 375 259 404 q 281 295 259 346 q 302 174 302 245 q 300 126 302 151 q 296 76 298 101 q 291 26 293 50 q 289 -20 289 1 q 327 -125 289 -90 q 436 -160 365 -160 l 456 -160 z "},"|":{"ha":389,"x_min":125,"x_max":264,"o":"m 264 1042 l 264 -292 l 125 -292 l 125 1042 l 264 1042 z "},"}":{"ha":539,"x_min":83,"x_max":511,"o":"m 103 -160 q 212 -125 174 -160 q 250 -20 250 -90 q 248 26 250 1 q 243 76 245 50 q 238 126 241 101 q 236 174 236 151 q 258 295 236 245 q 329 375 280 346 q 258 454 280 404 q 236 576 236 505 q 238 624 236 599 q 243 674 241 649 q 248 724 245 700 q 250 770 250 749 q 212 874 250 840 q 103 909 174 909 l 83 909 l 83 1042 l 103 1042 q 220 1023 168 1042 q 311 970 273 1005 q 368 886 348 936 q 389 772 389 836 q 387 720 389 748 q 382 665 385 692 q 377 613 379 637 q 375 571 375 589 q 382 507 375 532 q 405 468 389 482 q 446 447 421 453 q 505 441 471 441 l 511 441 l 511 309 l 505 309 q 446 303 471 309 q 405 282 421 297 q 382 243 389 268 q 375 179 375 218 q 377 137 375 161 q 382 84 379 112 q 387 29 385 57 q 389 -22 389 1 q 368 -136 389 -86 q 311 -220 348 -186 q 220 -273 273 -255 q 103 -292 168 -292 l 83 -292 l 83 -160 l 103 -160 z "},"~":{"ha":821,"x_min":83,"x_max":737,"o":"m 83 330 q 99 413 84 375 q 141 480 115 452 q 205 524 168 508 q 288 541 243 541 q 367 528 334 541 q 427 499 399 515 q 481 470 454 483 q 541 457 507 457 q 573 464 559 457 q 598 482 588 471 q 615 509 609 494 q 623 541 621 524 l 737 541 q 722 458 736 496 q 680 391 707 420 q 615 347 652 363 q 533 330 578 330 q 454 343 487 330 q 394 372 421 356 q 340 401 366 388 q 281 414 314 414 q 248 407 262 414 q 222 389 233 400 q 206 362 212 377 q 199 330 200 347 l 83 330 z "}," ":{"ha":416,"x_min":0,"x_max":0,"o":""},"¡":{"ha":397,"x_min":97,"x_max":300,"o":"m 237 319 l 293 -292 l 104 -292 l 160 319 l 237 319 m 97 681 l 300 681 l 300 478 l 97 478 l 97 681 z "},"¢":{"ha":833,"x_min":111,"x_max":722,"o":"m 244 589 l 244 134 l 589 134 l 589 256 l 722 256 l 722 134 q 712 81 722 106 q 683 39 701 57 q 641 11 665 21 q 589 0 616 0 l 484 0 l 484 -151 l 350 -151 l 350 0 l 244 0 q 193 11 217 0 q 150 39 168 21 q 122 81 132 57 q 111 134 111 106 l 111 589 q 122 641 111 616 q 150 683 132 665 q 193 712 168 701 q 244 722 217 722 l 350 722 l 350 873 l 484 873 l 484 722 l 589 722 q 641 712 616 722 q 683 683 665 701 q 712 641 701 665 q 722 589 722 616 l 722 467 l 589 467 l 589 589 l 244 589 z "},"£":{"ha":994,"x_min":56,"x_max":911,"o":"m 203 833 q 214 887 203 862 q 243 931 224 913 q 288 961 262 950 q 342 972 313 972 l 711 972 q 765 961 740 972 q 809 931 790 950 q 839 887 828 913 q 850 833 850 862 l 850 708 l 711 708 l 711 833 l 342 833 l 342 536 l 636 536 l 636 424 l 342 424 l 342 139 l 772 139 l 772 283 l 911 283 l 911 139 q 900 85 911 111 q 870 41 889 60 q 826 11 851 22 q 772 0 801 0 l 481 0 q 428 11 452 0 q 384 39 403 21 q 354 81 366 57 q 342 134 343 106 q 330 81 341 106 q 299 39 318 57 q 255 11 280 21 q 203 0 231 0 l 58 0 l 58 139 l 203 139 l 203 424 l 56 424 l 56 536 l 203 536 l 203 833 l 203 833 z "},"¤":{"ha":895,"x_min":97,"x_max":798,"o":"m 711 135 l 604 240 q 530 207 570 218 q 447 195 490 195 q 363 207 403 195 q 290 241 324 220 l 183 135 l 97 221 l 204 328 q 170 401 182 361 q 157 485 157 441 q 169 568 157 528 q 203 642 181 608 l 97 749 l 183 835 l 290 728 q 363 762 324 749 q 447 775 403 775 q 530 762 490 775 q 604 728 570 749 l 711 835 l 798 749 l 690 642 q 725 568 712 608 q 737 485 737 528 q 725 401 737 441 q 690 328 712 361 l 798 221 l 711 135 m 285 485 q 297 421 285 451 q 332 368 310 391 q 384 333 354 346 q 447 319 413 319 q 511 333 481 319 q 563 368 541 346 q 597 421 585 391 q 610 485 610 451 q 597 549 610 519 q 563 601 585 578 q 511 636 541 623 q 447 650 481 650 q 384 636 413 650 q 332 601 354 623 q 297 549 310 578 q 285 485 285 519 z "},"¥":{"ha":945,"x_min":28,"x_max":917,"o":"m 111 479 l 343 479 l 28 972 l 189 972 l 472 518 l 755 972 l 917 972 l 602 479 l 833 479 l 833 367 l 542 367 l 542 275 l 833 275 l 833 163 l 542 163 l 542 0 l 403 0 l 403 163 l 111 163 l 111 275 l 403 275 l 403 367 l 111 367 l 111 479 z "},"¦":{"ha":389,"x_min":125,"x_max":264,"o":"m 264 309 l 264 -292 l 125 -292 l 125 309 l 264 309 m 264 1042 l 264 441 l 125 441 l 125 1042 l 264 1042 z "},"§":{"ha":958,"x_min":125,"x_max":833,"o":"m 272 431 q 220 443 245 432 q 178 473 196 454 q 150 516 160 492 q 139 570 139 541 l 139 833 q 150 887 139 862 q 180 931 161 913 q 224 961 199 950 q 278 972 250 972 l 694 972 q 748 961 723 972 q 793 931 774 950 q 823 887 812 913 q 833 833 833 862 l 833 708 l 694 708 l 694 833 l 278 833 l 278 570 l 694 570 q 748 559 723 570 q 793 529 774 548 q 823 485 812 510 q 833 431 833 459 l 833 167 l 700 167 q 752 155 728 166 q 794 124 777 143 q 823 80 812 105 q 833 28 833 56 l 833 -236 q 823 -290 833 -264 q 793 -334 812 -315 q 748 -364 774 -353 q 694 -375 723 -375 l 264 -375 q 210 -364 235 -375 q 165 -334 184 -353 q 136 -290 146 -315 q 125 -236 125 -264 l 125 -111 l 264 -111 l 264 -236 l 694 -236 l 694 28 l 278 28 q 224 39 250 28 q 180 68 199 50 q 150 113 161 87 q 139 167 139 138 l 139 431 l 272 431 m 694 431 l 278 431 l 278 167 l 694 167 l 694 431 z "},"¨":{"ha":596,"x_min":83,"x_max":513,"o":"m 366 994 l 513 994 l 513 847 l 366 847 l 366 994 m 83 994 l 231 994 l 231 847 l 83 847 l 83 994 z "},"©":{"ha":1139,"x_min":69,"x_max":1069,"o":"m 69 486 q 106 687 69 595 q 211 845 144 779 q 369 949 277 911 q 570 986 461 986 q 770 949 679 986 q 928 845 862 911 q 1032 687 995 779 q 1069 486 1069 595 q 1032 286 1069 378 q 928 127 995 194 q 770 24 862 61 q 570 -14 679 -14 q 369 24 461 -14 q 211 127 277 61 q 106 286 144 194 q 69 486 69 378 m 570 82 q 732 112 659 82 q 859 195 806 142 q 941 323 911 249 q 970 486 970 397 q 941 649 970 575 q 859 777 911 724 q 732 861 806 831 q 570 890 659 890 q 407 861 480 890 q 280 777 333 831 q 199 649 228 724 q 170 486 170 575 q 199 323 170 397 q 280 195 228 249 q 407 112 333 142 q 570 82 480 82 m 351 677 q 357 707 351 693 q 374 731 363 721 q 398 748 385 742 q 428 754 412 754 l 705 754 q 735 748 721 754 q 759 731 749 742 q 776 707 770 721 q 782 677 782 693 l 782 590 l 688 590 l 688 660 l 446 660 l 446 313 l 688 313 l 688 382 l 782 382 l 782 294 q 776 265 782 279 q 759 241 770 251 q 735 224 749 231 q 705 218 721 218 l 428 218 q 398 224 412 218 q 374 241 385 231 q 357 265 363 251 q 351 294 351 279 l 351 677 z "},"ª":{"ha":628,"x_min":97,"x_max":530,"o":"m 97 668 q 105 710 97 690 q 128 744 114 730 q 162 767 142 758 q 204 775 182 775 l 424 775 l 424 868 l 131 868 l 131 972 l 424 972 q 466 964 446 972 q 499 941 485 956 q 522 907 514 926 q 530 865 530 887 l 530 450 l 428 450 l 428 545 q 417 506 426 524 q 393 476 408 489 q 360 457 379 464 q 321 450 342 450 l 204 450 q 162 458 182 450 q 128 481 142 467 q 105 514 114 495 q 97 555 97 534 l 97 668 m 97 329 l 530 329 l 530 239 l 97 239 l 97 329 m 200 553 l 428 553 l 428 672 l 200 672 l 200 553 z "},"«":{"ha":766,"x_min":69,"x_max":669,"o":"m 69 339 l 372 636 l 372 497 l 203 318 l 372 139 l 372 0 l 69 297 l 69 339 m 367 339 l 669 636 l 669 497 l 500 318 l 669 139 l 669 0 l 367 297 l 367 339 z "},"¬":{"ha":981,"x_min":111,"x_max":869,"o":"m 111 570 l 869 570 l 869 164 l 736 164 l 736 436 l 111 436 l 111 570 z "},"®":{"ha":1139,"x_min":69,"x_max":1069,"o":"m 69 486 q 106 687 69 595 q 211 845 144 779 q 369 949 277 911 q 570 986 461 986 q 770 949 679 986 q 928 845 862 911 q 1032 687 995 779 q 1069 486 1069 595 q 1032 286 1069 378 q 928 127 995 194 q 770 24 862 61 q 570 -14 679 -14 q 369 24 461 -14 q 211 127 277 61 q 106 286 144 194 q 69 486 69 378 m 570 82 q 732 112 659 82 q 859 195 806 142 q 941 323 911 249 q 970 486 970 397 q 941 649 970 575 q 859 777 911 724 q 732 861 806 831 q 570 890 659 890 q 407 861 480 890 q 280 777 333 831 q 199 649 228 724 q 170 486 170 575 q 199 323 170 397 q 280 195 228 249 q 407 112 333 142 q 570 82 480 82 m 790 562 q 694 435 790 449 l 796 218 l 693 218 l 593 432 l 463 432 l 463 218 l 368 218 l 368 754 l 661 754 q 790 624 790 754 l 790 562 m 463 528 l 643 528 q 685 539 673 528 q 696 581 696 551 l 696 606 q 685 648 696 636 q 643 660 673 660 l 463 660 l 463 528 z "},"¯":{"ha":656,"x_min":83,"x_max":572,"o":"m 83 972 l 572 972 l 572 860 l 83 860 l 83 972 z "},"°":{"ha":608,"x_min":83,"x_max":525,"o":"m 83 765 q 101 851 83 810 q 149 921 119 891 q 219 968 178 951 q 304 986 259 986 q 390 968 350 986 q 460 921 430 951 q 508 851 490 891 q 525 765 525 810 q 508 680 525 720 q 460 610 490 640 q 390 562 430 580 q 304 545 350 545 q 219 562 259 545 q 149 610 178 580 q 101 680 119 640 q 83 765 83 720 m 192 765 q 200 720 192 741 q 224 683 209 699 q 260 657 239 667 q 304 648 280 648 q 349 657 328 648 q 385 683 370 667 q 408 720 399 699 q 416 765 416 741 q 408 810 416 789 q 385 847 399 831 q 349 872 370 863 q 304 882 328 882 q 260 872 280 882 q 224 847 239 863 q 200 810 209 831 q 192 765 192 789 z "},"±":{"ha":981,"x_min":111,"x_max":869,"o":"m 557 771 l 557 514 l 869 514 l 869 380 l 557 380 l 557 146 l 869 146 l 869 12 l 111 12 l 111 146 l 424 146 l 424 380 l 111 380 l 111 514 l 424 514 l 424 771 l 557 771 z "},"²":{"ha":564,"x_min":83,"x_max":481,"o":"m 83 600 q 97 653 83 633 q 140 688 111 673 l 374 798 l 374 875 l 180 875 l 180 812 l 83 812 l 83 903 q 91 932 83 919 q 110 954 98 945 q 136 968 121 963 q 164 972 150 972 l 390 972 q 419 967 405 972 q 445 953 433 962 q 464 931 456 944 q 471 903 471 918 l 471 800 q 457 747 471 768 q 414 713 444 727 l 180 603 l 180 555 l 383 555 l 383 618 l 481 618 l 481 458 l 83 458 l 83 600 l 83 600 z "},"³":{"ha":575,"x_min":83,"x_max":492,"o":"m 83 633 l 179 633 l 179 593 q 216 554 179 554 l 358 554 q 396 593 396 554 l 396 631 q 387 661 396 652 q 358 669 378 669 l 228 669 l 228 766 l 355 766 q 381 777 373 768 q 389 806 389 786 l 389 838 q 380 867 389 857 q 351 876 371 876 l 224 876 q 186 838 186 876 l 186 798 l 90 798 l 90 840 q 222 972 90 972 l 353 972 q 485 840 485 972 l 485 832 q 475 769 485 795 q 443 726 465 743 q 479 683 467 711 q 492 614 492 656 l 492 590 q 459 491 492 523 q 359 458 427 458 l 215 458 q 83 590 83 458 l 83 633 z "},"´":{"ha":524,"x_min":83,"x_max":440,"o":"m 237 1000 l 440 1000 l 211 847 l 83 847 l 237 1000 z "},"µ":{"ha":847,"x_min":111,"x_max":750,"o":"m 111 -292 l 111 722 l 244 722 l 244 134 l 616 134 l 616 722 l 750 722 l 750 0 l 616 0 l 616 127 q 605 78 616 101 q 575 38 593 55 q 534 10 557 20 q 484 0 510 0 l 244 0 l 244 -292 l 111 -292 z "},"¶":{"ha":962,"x_min":69,"x_max":838,"o":"m 408 -292 l 408 361 l 306 361 q 69 597 69 361 l 69 736 q 306 972 69 972 l 838 972 l 838 -292 l 699 -292 l 699 833 l 547 833 l 547 -292 l 408 -292 z "},"·":{"ha":425,"x_min":111,"x_max":314,"o":"m 111 581 l 314 581 l 314 378 l 111 378 l 111 581 z "},"¸":{"ha":694,"x_min":180,"x_max":454,"o":"m 192 -157 l 336 45 l 435 45 l 359 -62 q 396 -70 379 -62 q 427 -90 414 -77 q 447 -120 439 -103 q 454 -157 454 -138 l 454 -262 q 447 -299 454 -282 q 427 -329 439 -316 q 396 -349 414 -342 q 359 -357 379 -357 l 180 -357 l 180 -262 l 359 -262 l 359 -157 l 192 -157 z "},"¹":{"ha":334,"x_min":56,"x_max":236,"o":"m 236 972 l 236 458 l 139 458 l 139 875 l 56 875 l 56 972 l 236 972 z "},"º":{"ha":628,"x_min":97,"x_max":530,"o":"m 530 555 q 522 514 530 534 q 499 481 514 495 q 466 458 485 467 q 424 450 446 450 l 204 450 q 162 458 182 450 q 128 481 142 467 q 105 514 114 495 q 97 555 97 534 l 97 865 q 105 907 97 887 q 128 941 114 926 q 162 964 142 956 q 204 972 182 972 l 424 972 q 466 964 446 972 q 499 941 485 956 q 522 907 514 926 q 530 865 530 887 l 530 555 m 200 868 l 200 553 l 428 553 l 428 868 l 200 868 m 97 329 l 530 329 l 530 239 l 97 239 l 97 329 z "},"»":{"ha":766,"x_min":97,"x_max":697,"o":"m 697 297 l 395 0 l 395 139 l 564 318 l 395 497 l 395 636 l 697 339 l 697 297 m 400 297 l 97 0 l 97 139 l 267 318 l 97 497 l 97 636 l 400 339 l 400 297 z "},"¼":{"ha":1092,"x_min":83,"x_max":994,"o":"m 118 0 l 762 972 l 878 972 l 227 0 l 118 0 m 264 972 l 264 458 l 167 458 l 167 875 l 83 875 l 83 972 l 264 972 m 827 514 l 929 514 l 929 195 l 994 195 l 994 100 l 929 100 l 929 0 l 832 0 l 832 100 l 579 100 l 579 186 l 827 514 m 832 195 l 832 385 l 688 195 l 832 195 z "},"½":{"ha":1182,"x_min":83,"x_max":1084,"o":"m 118 0 l 762 972 l 878 972 l 227 0 l 118 0 m 264 972 l 264 458 l 167 458 l 167 875 l 83 875 l 83 972 l 264 972 m 688 142 q 701 195 688 174 q 745 229 715 216 l 978 339 l 978 416 l 785 416 l 785 354 l 688 354 l 688 444 q 695 473 688 460 q 714 495 702 486 q 740 509 726 505 q 768 514 754 514 l 994 514 q 1023 509 1009 514 q 1049 495 1038 504 q 1068 473 1061 486 q 1075 444 1075 460 l 1075 342 q 1062 289 1075 309 q 1018 254 1048 269 l 785 144 l 785 97 l 987 97 l 987 160 l 1084 160 l 1084 0 l 688 0 l 688 142 l 688 142 z "},"¾":{"ha":1287,"x_min":97,"x_max":1190,"o":"m 314 0 l 958 972 l 1074 972 l 422 0 l 314 0 m 1022 514 l 1125 514 l 1125 195 l 1190 195 l 1190 100 l 1125 100 l 1125 0 l 1028 0 l 1028 100 l 775 100 l 775 186 l 1022 514 m 1028 195 l 1028 385 l 884 195 l 1028 195 m 97 633 l 193 633 l 193 593 q 202 564 193 573 q 231 554 211 554 l 372 554 q 401 564 392 554 q 410 593 410 573 l 410 631 q 401 661 410 652 q 372 669 392 669 l 241 669 l 241 766 l 370 766 q 395 777 387 768 q 403 806 403 786 l 403 838 q 394 867 403 857 q 366 876 385 876 l 237 876 q 209 867 218 876 q 200 838 200 857 l 200 798 l 104 798 l 104 840 q 236 972 104 972 l 367 972 q 498 840 498 972 l 498 832 q 489 769 498 795 q 457 726 479 743 q 493 683 481 711 q 505 614 505 656 l 505 590 q 374 458 505 458 l 229 458 q 97 590 97 458 l 97 633 z "},"¿":{"ha":778,"x_min":83,"x_max":694,"o":"m 83 -33 q 89 18 83 -5 q 106 58 94 40 q 136 90 118 75 q 180 117 155 104 l 359 203 l 359 319 l 498 319 l 498 228 q 493 177 498 199 q 475 137 487 155 q 446 104 464 119 q 401 78 427 90 l 222 -8 l 222 -153 l 555 -153 l 555 -28 l 694 -28 l 694 -153 q 684 -207 694 -181 q 654 -251 673 -232 q 609 -281 635 -270 q 555 -292 584 -292 l 222 -292 q 169 -281 194 -292 q 124 -251 143 -270 q 94 -207 105 -232 q 83 -153 83 -181 l 83 -33 m 526 478 l 323 478 l 323 681 l 526 681 l 526 478 z "},"À":{"ha":972,"x_min":41,"x_max":930,"o":"m 555 972 l 930 0 l 791 0 l 705 224 l 267 224 l 180 0 l 41 0 l 416 972 l 555 972 m 319 363 l 652 363 l 486 791 l 319 363 m 608 1097 l 481 1097 l 252 1250 l 454 1250 l 608 1097 z "},"Á":{"ha":972,"x_min":41,"x_max":930,"o":"m 555 972 l 930 0 l 791 0 l 705 224 l 267 224 l 180 0 l 41 0 l 416 972 l 555 972 m 319 363 l 652 363 l 486 791 l 319 363 m 517 1250 l 720 1250 l 490 1097 l 363 1097 l 517 1250 z "},"Â":{"ha":972,"x_min":41,"x_max":930,"o":"m 555 972 l 930 0 l 791 0 l 705 224 l 267 224 l 180 0 l 41 0 l 416 972 l 555 972 m 319 363 l 652 363 l 486 791 l 319 363 m 730 1097 l 589 1097 l 486 1189 l 383 1097 l 241 1097 l 403 1264 l 570 1264 l 730 1097 z "},"Ã":{"ha":972,"x_min":41,"x_max":930,"o":"m 555 972 l 930 0 l 791 0 l 705 224 l 267 224 l 180 0 l 41 0 l 416 972 l 555 972 m 319 363 l 652 363 l 486 791 l 319 363 m 221 1099 q 233 1166 221 1135 q 267 1220 245 1197 q 319 1256 289 1243 q 386 1270 349 1270 q 450 1259 424 1270 q 499 1236 477 1249 q 543 1212 522 1223 q 591 1202 564 1202 q 639 1222 621 1202 q 659 1270 656 1242 l 751 1270 q 739 1202 751 1234 q 705 1148 726 1171 q 653 1112 683 1125 q 586 1099 623 1099 q 522 1109 548 1099 q 473 1133 495 1120 q 429 1156 450 1145 q 380 1166 408 1166 q 334 1146 351 1166 q 314 1099 316 1126 l 221 1099 z "},"Ä":{"ha":972,"x_min":41,"x_max":930,"o":"m 555 972 l 930 0 l 791 0 l 705 224 l 267 224 l 180 0 l 41 0 l 416 972 l 555 972 m 319 363 l 652 363 l 486 791 l 319 363 m 553 1244 l 700 1244 l 700 1097 l 553 1097 l 553 1244 m 271 1244 l 418 1244 l 418 1097 l 271 1097 l 271 1244 z "},"Å":{"ha":972,"x_min":41,"x_max":930,"o":"m 298 1064 q 313 1138 298 1103 q 353 1197 328 1172 q 412 1237 378 1222 q 486 1251 447 1251 q 560 1237 526 1251 q 619 1197 594 1222 q 659 1138 644 1172 q 673 1064 673 1103 q 649 968 673 1010 q 582 901 624 925 l 930 0 l 791 0 l 705 224 l 267 224 l 180 0 l 41 0 l 389 901 q 323 968 348 925 q 298 1064 298 1010 m 319 363 l 652 363 l 486 791 l 319 363 m 397 1064 q 404 1028 397 1045 q 423 999 411 1012 q 451 980 435 987 q 486 972 467 972 q 522 980 505 972 q 550 999 538 987 q 568 1028 562 1012 q 575 1064 575 1045 q 568 1099 575 1082 q 550 1128 562 1116 q 522 1148 538 1141 q 486 1156 505 1156 q 451 1148 467 1156 q 423 1128 435 1141 q 404 1099 411 1116 q 397 1064 397 1082 z "},"Æ":{"ha":1597,"x_min":1,"x_max":1514,"o":"m 806 224 l 349 224 l 175 0 l 1 0 l 757 972 l 1514 972 l 1514 833 l 945 833 l 945 555 l 1430 555 l 1430 416 l 945 416 l 945 139 l 1514 139 l 1514 0 l 806 0 l 806 224 m 806 363 l 806 811 l 456 363 l 806 363 z "},"Ç":{"ha":1028,"x_min":125,"x_max":930,"o":"m 387 -157 l 500 0 l 264 0 q 210 11 235 0 q 165 41 184 22 q 136 85 146 60 q 125 139 125 111 l 125 833 q 136 887 125 862 q 165 931 146 913 q 210 961 184 950 q 264 972 235 972 l 791 972 q 845 961 820 972 q 890 931 871 950 q 920 887 909 913 q 930 833 930 862 l 930 708 l 791 708 l 791 833 l 264 833 l 264 139 l 791 139 l 791 264 l 930 264 l 930 139 q 920 85 930 111 q 890 41 909 60 q 845 11 871 22 q 791 0 820 0 l 599 0 l 555 -62 q 592 -70 575 -62 q 623 -90 610 -77 q 643 -120 635 -103 q 650 -157 650 -138 l 650 -262 q 643 -299 650 -282 q 623 -329 635 -316 q 592 -349 610 -342 q 555 -357 575 -357 l 376 -357 l 376 -262 l 555 -262 l 555 -157 l 387 -157 z "},"È":{"ha":917,"x_min":125,"x_max":833,"o":"m 125 972 l 833 972 l 833 833 l 264 833 l 264 555 l 750 555 l 750 416 l 264 416 l 264 139 l 833 139 l 833 0 l 125 0 l 125 972 m 608 1097 l 481 1097 l 252 1250 l 454 1250 l 608 1097 z "},"É":{"ha":917,"x_min":125,"x_max":833,"o":"m 125 972 l 833 972 l 833 833 l 264 833 l 264 555 l 750 555 l 750 416 l 264 416 l 264 139 l 833 139 l 833 0 l 125 0 l 125 972 m 489 1250 l 692 1250 l 463 1097 l 335 1097 l 489 1250 z "},"Ê":{"ha":917,"x_min":125,"x_max":833,"o":"m 125 972 l 833 972 l 833 833 l 264 833 l 264 555 l 750 555 l 750 416 l 264 416 l 264 139 l 833 139 l 833 0 l 125 0 l 125 972 m 730 1097 l 589 1097 l 486 1189 l 383 1097 l 241 1097 l 403 1264 l 570 1264 l 730 1097 z "},"Ë":{"ha":917,"x_min":125,"x_max":833,"o":"m 125 972 l 833 972 l 833 833 l 264 833 l 264 555 l 750 555 l 750 416 l 264 416 l 264 139 l 833 139 l 833 0 l 125 0 l 125 972 m 553 1244 l 700 1244 l 700 1097 l 553 1097 l 553 1244 m 271 1244 l 418 1244 l 418 1097 l 271 1097 l 271 1244 z "},"Ì":{"ha":389,"x_min":-39,"x_max":318,"o":"m 264 972 l 264 0 l 125 0 l 125 972 l 264 972 m 318 1097 l 191 1097 l -39 1250 l 164 1250 l 318 1097 z "},"Í":{"ha":389,"x_min":72,"x_max":429,"o":"m 264 972 l 264 0 l 125 0 l 125 972 l 264 972 m 227 1250 l 429 1250 l 200 1097 l 72 1097 l 227 1250 z "},"Î":{"ha":389,"x_min":-50,"x_max":439,"o":"m 264 972 l 264 0 l 125 0 l 125 972 l 264 972 m 439 1097 l 297 1097 l 195 1189 l 92 1097 l -50 1097 l 111 1264 l 278 1264 l 439 1097 z "},"Ï":{"ha":389,"x_min":-20,"x_max":410,"o":"m 264 972 l 264 0 l 125 0 l 125 972 l 264 972 m 262 1244 l 410 1244 l 410 1097 l 262 1097 l 262 1244 m -20 1244 l 127 1244 l 127 1097 l -20 1097 l -20 1244 z "},"Ð":{"ha":1084,"x_min":28,"x_max":987,"o":"m 28 505 l 153 505 l 153 972 l 647 972 q 788 948 725 972 q 895 880 850 924 q 963 772 939 836 q 987 632 987 709 l 987 340 q 963 200 987 263 q 895 93 939 137 q 788 24 850 48 q 647 0 725 0 l 153 0 l 153 393 l 28 393 l 28 505 m 647 139 q 796 191 744 139 q 848 340 848 243 l 848 632 q 835 717 848 680 q 795 780 821 754 q 732 820 769 806 q 647 833 694 833 l 292 833 l 292 505 l 533 505 l 533 393 l 292 393 l 292 139 l 647 139 z "},"Ñ":{"ha":1112,"x_min":125,"x_max":987,"o":"m 264 0 l 125 0 l 125 972 l 264 972 l 848 218 l 848 972 l 987 972 l 987 0 l 848 0 l 264 754 l 264 0 m 290 1099 q 302 1166 290 1135 q 336 1220 315 1197 q 389 1256 358 1243 q 456 1270 419 1270 q 520 1259 493 1270 q 569 1236 547 1249 q 613 1212 591 1223 q 661 1202 634 1202 q 708 1222 690 1202 q 728 1270 726 1242 l 821 1270 q 808 1202 820 1234 q 774 1148 795 1171 q 722 1112 752 1125 q 656 1099 692 1099 q 591 1109 618 1099 q 542 1133 564 1120 q 498 1156 519 1145 q 450 1166 477 1166 q 403 1146 420 1166 q 383 1099 385 1126 l 290 1099 z "},"Ò":{"ha":1083,"x_min":125,"x_max":958,"o":"m 958 139 q 947 85 958 111 q 918 41 937 60 q 873 11 899 22 q 819 0 848 0 l 264 0 q 210 11 235 0 q 165 41 184 22 q 136 85 146 60 q 125 139 125 111 l 125 833 q 136 887 125 862 q 165 931 146 913 q 210 961 184 950 q 264 972 235 972 l 819 972 q 873 961 848 972 q 918 931 899 950 q 947 887 937 913 q 958 833 958 862 l 958 139 m 264 833 l 264 139 l 819 139 l 819 833 l 264 833 m 664 1097 l 536 1097 l 307 1250 l 510 1250 l 664 1097 z "},"Ó":{"ha":1083,"x_min":125,"x_max":958,"o":"m 958 139 q 947 85 958 111 q 918 41 937 60 q 873 11 899 22 q 819 0 848 0 l 264 0 q 210 11 235 0 q 165 41 184 22 q 136 85 146 60 q 125 139 125 111 l 125 833 q 136 887 125 862 q 165 931 146 913 q 210 961 184 950 q 264 972 235 972 l 819 972 q 873 961 848 972 q 918 931 899 950 q 947 887 937 913 q 958 833 958 862 l 958 139 m 264 833 l 264 139 l 819 139 l 819 833 l 264 833 m 572 1250 l 775 1250 l 546 1097 l 418 1097 l 572 1250 z "},"Ô":{"ha":1083,"x_min":125,"x_max":958,"o":"m 958 139 q 947 85 958 111 q 918 41 937 60 q 873 11 899 22 q 819 0 848 0 l 264 0 q 210 11 235 0 q 165 41 184 22 q 136 85 146 60 q 125 139 125 111 l 125 833 q 136 887 125 862 q 165 931 146 913 q 210 961 184 950 q 264 972 235 972 l 819 972 q 873 961 848 972 q 918 931 899 950 q 947 887 937 913 q 958 833 958 862 l 958 139 m 264 833 l 264 139 l 819 139 l 819 833 l 264 833 m 786 1097 l 644 1097 l 542 1189 l 439 1097 l 297 1097 l 458 1264 l 625 1264 l 786 1097 z "},"Õ":{"ha":1083,"x_min":125,"x_max":958,"o":"m 958 139 q 947 85 958 111 q 918 41 937 60 q 873 11 899 22 q 819 0 848 0 l 264 0 q 210 11 235 0 q 165 41 184 22 q 136 85 146 60 q 125 139 125 111 l 125 833 q 136 887 125 862 q 165 931 146 913 q 210 961 184 950 q 264 972 235 972 l 819 972 q 873 961 848 972 q 918 931 899 950 q 947 887 937 913 q 958 833 958 862 l 958 139 m 264 833 l 264 139 l 819 139 l 819 833 l 264 833 m 277 1099 q 289 1166 277 1135 q 323 1220 301 1197 q 375 1256 345 1243 q 441 1270 405 1270 q 506 1259 479 1270 q 555 1236 532 1249 q 598 1212 577 1223 q 647 1202 620 1202 q 694 1222 677 1202 q 714 1270 712 1242 l 807 1270 q 794 1202 806 1234 q 760 1148 782 1171 q 708 1112 739 1125 q 642 1099 678 1099 q 577 1109 604 1099 q 528 1133 551 1120 q 485 1156 506 1145 q 436 1166 463 1166 q 389 1146 407 1166 q 370 1099 372 1126 l 277 1099 z "},"Ö":{"ha":1083,"x_min":125,"x_max":958,"o":"m 958 139 q 947 85 958 111 q 918 41 937 60 q 873 11 899 22 q 819 0 848 0 l 264 0 q 210 11 235 0 q 165 41 184 22 q 136 85 146 60 q 125 139 125 111 l 125 833 q 136 887 125 862 q 165 931 146 913 q 210 961 184 950 q 264 972 235 972 l 819 972 q 873 961 848 972 q 918 931 899 950 q 947 887 937 913 q 958 833 958 862 l 958 139 m 264 833 l 264 139 l 819 139 l 819 833 l 264 833 m 608 1244 l 755 1244 l 755 1097 l 608 1097 l 608 1244 m 326 1244 l 473 1244 l 473 1097 l 326 1097 l 326 1244 z "},"×":{"ha":914,"x_min":83,"x_max":831,"o":"m 831 672 l 550 392 l 831 111 l 737 18 l 457 298 l 176 18 l 83 111 l 364 392 l 83 672 l 176 765 l 457 485 l 737 765 l 831 672 z "},"Ø":{"ha":1083,"x_min":125,"x_max":958,"o":"m 958 139 q 947 85 958 111 q 918 41 937 60 q 873 11 899 22 q 819 0 848 0 l 315 0 l 235 -139 l 125 -139 l 210 9 q 176 31 191 18 q 149 60 160 43 q 131 97 138 77 q 125 139 125 117 l 125 833 q 136 887 125 862 q 165 931 146 913 q 210 961 184 950 q 264 972 235 972 l 762 972 l 842 1111 l 958 1111 l 872 961 q 907 940 891 953 q 934 910 922 927 q 952 874 945 894 q 958 833 958 855 l 958 139 m 798 833 l 396 139 l 819 139 l 819 833 l 798 833 m 264 139 l 283 139 l 682 833 l 264 833 l 264 139 z "},"Ù":{"ha":1083,"x_min":125,"x_max":958,"o":"m 125 972 l 264 972 l 264 139 l 819 139 l 819 972 l 958 972 l 958 139 q 947 85 958 111 q 918 41 937 60 q 873 11 899 22 q 819 0 848 0 l 264 0 q 210 11 235 0 q 165 41 184 22 q 136 85 146 60 q 125 139 125 111 l 125 972 m 650 1097 l 522 1097 l 293 1250 l 496 1250 l 650 1097 z "},"Ú":{"ha":1083,"x_min":125,"x_max":958,"o":"m 125 972 l 264 972 l 264 139 l 819 139 l 819 972 l 958 972 l 958 139 q 947 85 958 111 q 918 41 937 60 q 873 11 899 22 q 819 0 848 0 l 264 0 q 210 11 235 0 q 165 41 184 22 q 136 85 146 60 q 125 139 125 111 l 125 972 m 586 1250 l 789 1250 l 559 1097 l 432 1097 l 586 1250 z "},"Û":{"ha":1083,"x_min":125,"x_max":958,"o":"m 125 972 l 264 972 l 264 139 l 819 139 l 819 972 l 958 972 l 958 139 q 947 85 958 111 q 918 41 937 60 q 873 11 899 22 q 819 0 848 0 l 264 0 q 210 11 235 0 q 165 41 184 22 q 136 85 146 60 q 125 139 125 111 l 125 972 m 786 1097 l 644 1097 l 542 1189 l 439 1097 l 297 1097 l 458 1264 l 625 1264 l 786 1097 z "},"Ü":{"ha":1083,"x_min":125,"x_max":958,"o":"m 125 972 l 264 972 l 264 139 l 819 139 l 819 972 l 958 972 l 958 139 q 947 85 958 111 q 918 41 937 60 q 873 11 899 22 q 819 0 848 0 l 264 0 q 210 11 235 0 q 165 41 184 22 q 136 85 146 60 q 125 139 125 111 l 125 972 m 608 1244 l 755 1244 l 755 1097 l 608 1097 l 608 1244 m 326 1244 l 473 1244 l 473 1097 l 326 1097 l 326 1244 z "},"Ý":{"ha":945,"x_min":28,"x_max":917,"o":"m 189 972 l 472 518 l 755 972 l 917 972 l 542 386 l 542 0 l 403 0 l 403 386 l 28 972 l 189 972 m 530 1250 l 733 1250 l 504 1097 l 376 1097 l 530 1250 z "},"Þ":{"ha":962,"x_min":125,"x_max":893,"o":"m 893 458 q 835 280 893 338 q 657 222 777 222 l 264 222 l 264 0 l 125 0 l 125 1000 l 264 1000 l 264 806 l 657 806 q 893 570 893 806 l 893 458 m 650 361 q 730 386 705 361 q 754 465 754 410 l 754 562 q 730 642 754 618 q 650 667 705 667 l 264 667 l 264 361 l 650 361 z "},"ß":{"ha":913,"x_min":125,"x_max":829,"o":"m 696 134 l 696 301 l 504 301 q 452 312 477 301 q 410 340 428 322 q 381 382 392 358 q 371 435 371 407 l 371 515 q 377 566 371 544 q 394 606 382 589 q 424 638 406 624 q 468 665 443 653 l 653 754 l 653 867 l 258 867 l 258 0 l 125 0 l 125 867 q 135 919 125 895 q 164 961 146 943 q 206 990 182 979 q 258 1000 231 1000 l 653 1000 q 705 990 681 1000 q 747 961 729 979 q 775 919 765 943 q 786 867 786 895 l 786 777 q 781 726 786 748 q 764 685 775 703 q 733 653 752 667 q 689 627 715 639 l 504 538 l 504 435 l 696 435 q 748 424 724 435 q 790 396 772 414 q 819 353 808 378 q 829 301 829 329 l 829 134 q 819 81 829 106 q 790 39 808 57 q 748 11 772 21 q 696 0 724 0 l 371 0 l 371 134 l 696 134 z "},"à":{"ha":833,"x_min":111,"x_max":722,"o":"m 111 315 q 122 367 111 343 q 150 410 132 391 q 193 438 168 428 q 244 449 217 449 l 589 449 l 589 589 l 153 589 l 153 722 l 589 722 q 641 712 616 722 q 683 683 665 701 q 712 641 701 665 q 722 589 722 616 l 722 0 l 589 0 l 589 122 q 575 75 587 97 q 546 36 564 52 q 505 9 528 19 q 456 0 481 0 l 244 0 q 193 11 217 0 q 150 39 168 21 q 122 81 132 57 q 111 134 111 106 l 111 315 m 244 134 l 589 134 l 589 315 l 244 315 l 244 134 m 539 847 l 411 847 l 182 1000 l 385 1000 l 539 847 z "},"á":{"ha":833,"x_min":111,"x_max":722,"o":"m 111 315 q 122 367 111 343 q 150 410 132 391 q 193 438 168 428 q 244 449 217 449 l 589 449 l 589 589 l 153 589 l 153 722 l 589 722 q 641 712 616 722 q 683 683 665 701 q 712 641 701 665 q 722 589 722 616 l 722 0 l 589 0 l 589 122 q 575 75 587 97 q 546 36 564 52 q 505 9 528 19 q 456 0 481 0 l 244 0 q 193 11 217 0 q 150 39 168 21 q 122 81 132 57 q 111 134 111 106 l 111 315 m 244 134 l 589 134 l 589 315 l 244 315 l 244 134 m 461 1000 l 664 1000 l 435 847 l 307 847 l 461 1000 z "},"â":{"ha":833,"x_min":111,"x_max":722,"o":"m 111 315 q 122 367 111 343 q 150 410 132 391 q 193 438 168 428 q 244 449 217 449 l 589 449 l 589 589 l 153 589 l 153 722 l 589 722 q 641 712 616 722 q 683 683 665 701 q 712 641 701 665 q 722 589 722 616 l 722 0 l 589 0 l 589 122 q 575 75 587 97 q 546 36 564 52 q 505 9 528 19 q 456 0 481 0 l 244 0 q 193 11 217 0 q 150 39 168 21 q 122 81 132 57 q 111 134 111 106 l 111 315 m 244 134 l 589 134 l 589 315 l 244 315 l 244 134 m 689 847 l 547 847 l 444 939 l 342 847 l 200 847 l 361 1014 l 528 1014 l 689 847 z "},"ã":{"ha":833,"x_min":111,"x_max":722,"o":"m 111 315 q 122 367 111 343 q 150 410 132 391 q 193 438 168 428 q 244 449 217 449 l 589 449 l 589 589 l 153 589 l 153 722 l 589 722 q 641 712 616 722 q 683 683 665 701 q 712 641 701 665 q 722 589 722 616 l 722 0 l 589 0 l 589 122 q 575 75 587 97 q 546 36 564 52 q 505 9 528 19 q 456 0 481 0 l 244 0 q 193 11 217 0 q 150 39 168 21 q 122 81 132 57 q 111 134 111 106 l 111 315 m 244 134 l 589 134 l 589 315 l 244 315 l 244 134 m 165 848 q 178 916 165 884 q 212 970 190 947 q 263 1006 233 993 q 330 1019 294 1019 q 395 1009 368 1019 q 444 985 421 998 q 488 962 466 972 q 536 951 509 951 q 583 972 566 951 q 603 1019 601 992 l 696 1019 q 683 952 695 983 q 649 898 671 921 q 597 862 627 875 q 530 848 567 848 q 485 853 505 848 q 448 866 465 859 q 417 883 431 873 q 388 899 402 892 q 358 912 374 907 q 325 917 343 917 q 278 897 296 917 q 258 848 260 876 l 165 848 z "},"ä":{"ha":833,"x_min":111,"x_max":722,"o":"m 111 315 q 122 367 111 343 q 150 410 132 391 q 193 438 168 428 q 244 449 217 449 l 589 449 l 589 589 l 153 589 l 153 722 l 589 722 q 641 712 616 722 q 683 683 665 701 q 712 641 701 665 q 722 589 722 616 l 722 0 l 589 0 l 589 122 q 575 75 587 97 q 546 36 564 52 q 505 9 528 19 q 456 0 481 0 l 244 0 q 193 11 217 0 q 150 39 168 21 q 122 81 132 57 q 111 134 111 106 l 111 315 m 244 134 l 589 134 l 589 315 l 244 315 l 244 134 m 497 994 l 644 994 l 644 847 l 497 847 l 497 994 m 215 994 l 363 994 l 363 847 l 215 847 l 215 994 z "},"å":{"ha":833,"x_min":111,"x_max":722,"o":"m 111 315 q 122 367 111 343 q 150 410 132 391 q 193 438 168 428 q 244 449 217 449 l 589 449 l 589 589 l 153 589 l 153 722 l 589 722 q 641 712 616 722 q 683 683 665 701 q 712 641 701 665 q 722 589 722 616 l 722 0 l 589 0 l 589 122 q 575 75 587 97 q 546 36 564 52 q 505 9 528 19 q 456 0 481 0 l 244 0 q 193 11 217 0 q 150 39 168 21 q 122 81 132 57 q 111 134 111 106 l 111 315 m 243 1000 q 257 1074 243 1040 q 297 1133 272 1108 q 357 1173 322 1158 q 431 1187 391 1187 q 505 1173 471 1187 q 564 1133 538 1158 q 604 1074 589 1108 q 618 1000 618 1040 q 604 926 618 961 q 564 867 589 892 q 505 827 538 842 q 431 812 471 812 q 357 827 391 812 q 297 867 322 842 q 257 926 272 892 q 243 1000 243 961 m 244 134 l 589 134 l 589 315 l 244 315 l 244 134 m 342 1000 q 349 965 342 981 q 367 936 355 948 q 395 916 379 923 q 431 908 412 908 q 466 916 450 908 q 494 936 482 923 q 513 965 506 948 q 519 1000 519 981 q 513 1035 519 1019 q 494 1064 506 1052 q 466 1084 482 1077 q 431 1092 450 1092 q 395 1084 412 1092 q 367 1064 379 1077 q 349 1035 355 1052 q 342 1000 342 1019 z "},"æ":{"ha":1311,"x_min":111,"x_max":1200,"o":"m 589 315 l 244 315 l 244 134 l 589 134 l 589 315 m 722 589 l 722 427 l 1067 427 l 1067 589 l 722 589 m 656 629 q 674 667 662 650 q 703 696 686 684 q 739 715 719 709 q 782 722 760 722 l 1067 722 q 1119 712 1095 722 q 1161 683 1143 701 q 1189 641 1179 665 q 1200 589 1200 616 l 1200 293 l 722 293 l 722 134 l 1200 134 l 1200 0 l 722 0 q 671 10 695 0 q 629 38 647 20 q 601 78 611 55 q 589 127 590 101 q 577 78 588 101 q 548 38 566 55 q 506 10 530 20 q 456 0 482 0 l 244 0 q 193 11 217 0 q 150 39 168 21 q 122 81 132 57 q 111 134 111 106 l 111 315 q 122 367 111 343 q 150 410 132 391 q 193 438 168 428 q 244 449 217 449 l 589 449 l 589 589 l 153 589 l 153 722 l 529 722 q 572 715 551 722 q 609 696 592 709 q 637 667 625 684 q 656 629 650 650 z "},"ç":{"ha":833,"x_min":111,"x_max":722,"o":"m 277 -157 l 389 0 l 244 0 q 193 11 217 0 q 150 39 168 21 q 122 81 132 57 q 111 134 111 106 l 111 589 q 122 641 111 616 q 150 683 132 665 q 193 712 168 701 q 244 722 217 722 l 589 722 q 641 712 616 722 q 683 683 665 701 q 712 641 701 665 q 722 589 722 616 l 722 467 l 589 467 l 589 589 l 244 589 l 244 134 l 589 134 l 589 256 l 722 256 l 722 134 q 712 81 722 106 q 683 39 701 57 q 641 11 665 21 q 589 0 616 0 l 488 0 l 444 -62 q 481 -70 464 -62 q 511 -90 498 -77 q 532 -120 524 -103 q 539 -157 539 -138 l 539 -262 q 532 -299 539 -282 q 511 -329 524 -316 q 481 -349 498 -342 q 444 -357 464 -357 l 265 -357 l 265 -262 l 444 -262 l 444 -157 l 277 -157 z "},"è":{"ha":833,"x_min":111,"x_max":722,"o":"m 722 293 l 244 293 l 244 134 l 722 134 l 722 0 l 244 0 q 193 11 217 0 q 150 39 168 21 q 122 81 132 57 q 111 134 111 106 l 111 589 q 122 641 111 616 q 150 683 132 665 q 193 712 168 701 q 244 722 217 722 l 589 722 q 641 712 616 722 q 683 683 665 701 q 712 641 701 665 q 722 589 722 616 l 722 293 m 244 589 l 244 427 l 589 427 l 589 589 l 244 589 m 539 847 l 411 847 l 182 1000 l 385 1000 l 539 847 z "},"é":{"ha":833,"x_min":111,"x_max":722,"o":"m 722 293 l 244 293 l 244 134 l 722 134 l 722 0 l 244 0 q 193 11 217 0 q 150 39 168 21 q 122 81 132 57 q 111 134 111 106 l 111 589 q 122 641 111 616 q 150 683 132 665 q 193 712 168 701 q 244 722 217 722 l 589 722 q 641 712 616 722 q 683 683 665 701 q 712 641 701 665 q 722 589 722 616 l 722 293 m 244 589 l 244 427 l 589 427 l 589 589 l 244 589 m 447 1000 l 650 1000 l 421 847 l 293 847 l 447 1000 z "},"ê":{"ha":833,"x_min":111,"x_max":722,"o":"m 722 293 l 244 293 l 244 134 l 722 134 l 722 0 l 244 0 q 193 11 217 0 q 150 39 168 21 q 122 81 132 57 q 111 134 111 106 l 111 589 q 122 641 111 616 q 150 683 132 665 q 193 712 168 701 q 244 722 217 722 l 589 722 q 641 712 616 722 q 683 683 665 701 q 712 641 701 665 q 722 589 722 616 l 722 293 m 244 589 l 244 427 l 589 427 l 589 589 l 244 589 m 661 847 l 519 847 l 416 939 l 314 847 l 172 847 l 334 1014 l 500 1014 l 661 847 z "},"ë":{"ha":833,"x_min":111,"x_max":722,"o":"m 722 293 l 244 293 l 244 134 l 722 134 l 722 0 l 244 0 q 193 11 217 0 q 150 39 168 21 q 122 81 132 57 q 111 134 111 106 l 111 589 q 122 641 111 616 q 150 683 132 665 q 193 712 168 701 q 244 722 217 722 l 589 722 q 641 712 616 722 q 683 683 665 701 q 712 641 701 665 q 722 589 722 616 l 722 293 m 244 589 l 244 427 l 589 427 l 589 589 l 244 589 m 484 994 l 631 994 l 631 847 l 484 847 l 484 994 m 201 994 l 349 994 l 349 847 l 201 847 l 201 994 z "},"ì":{"ha":370,"x_min":-49,"x_max":309,"o":"m 252 722 l 252 0 l 118 0 l 118 722 l 252 722 m 309 847 l 180 847 l -49 1000 l 154 1000 l 309 847 z "},"í":{"ha":370,"x_min":62,"x_max":419,"o":"m 252 722 l 252 0 l 118 0 l 118 722 l 252 722 m 216 1000 l 419 1000 l 191 847 l 62 847 l 216 1000 z "},"î":{"ha":370,"x_min":-60,"x_max":429,"o":"m 252 722 l 252 0 l 118 0 l 118 722 l 252 722 m 429 847 l 288 847 l 184 939 l 82 847 l -60 847 l 102 1014 l 268 1014 l 429 847 z "},"ï":{"ha":370,"x_min":-29,"x_max":400,"o":"m 252 722 l 252 0 l 118 0 l 118 722 l 252 722 m 253 994 l 400 994 l 400 847 l 253 847 l 253 994 m -29 994 l 118 994 l 118 847 l -29 847 l -29 994 z "},"ð":{"ha":847,"x_min":111,"x_max":736,"o":"m 736 134 q 725 81 736 106 q 697 39 715 57 q 655 11 679 21 q 603 0 631 0 l 244 0 q 193 11 217 0 q 150 39 168 21 q 122 81 132 57 q 111 134 111 106 l 111 589 q 122 641 111 616 q 150 683 132 665 q 193 712 168 701 q 244 722 217 722 l 574 722 q 547 779 562 751 q 511 829 531 806 l 396 761 l 354 836 l 452 893 q 396 934 425 916 q 336 966 368 952 l 380 1061 q 555 956 477 1025 l 673 1025 l 715 951 l 615 892 q 699 751 668 828 q 736 589 730 673 l 736 134 m 603 134 l 603 589 l 244 589 l 244 134 l 603 134 z "},"ñ":{"ha":861,"x_min":111,"x_max":750,"o":"m 750 0 l 616 0 l 616 589 l 244 589 l 244 0 l 111 0 l 111 722 l 244 722 l 244 595 q 256 645 245 621 q 285 685 267 668 q 327 712 303 703 q 378 722 351 722 l 616 722 q 669 712 644 722 q 711 683 693 701 q 740 641 729 665 q 750 589 750 616 l 750 0 m 165 848 q 178 916 165 884 q 212 970 190 947 q 263 1006 233 993 q 330 1019 294 1019 q 395 1009 368 1019 q 444 985 421 998 q 488 962 466 972 q 536 951 509 951 q 583 972 566 951 q 603 1019 601 992 l 696 1019 q 683 952 695 983 q 649 898 671 921 q 597 862 627 875 q 530 848 567 848 q 485 853 505 848 q 448 866 465 859 q 417 883 431 873 q 388 899 402 892 q 358 912 374 907 q 325 917 343 917 q 278 897 296 917 q 258 848 260 876 l 165 848 z "},"ò":{"ha":847,"x_min":111,"x_max":736,"o":"m 736 134 q 725 81 736 106 q 697 39 715 57 q 655 11 679 21 q 603 0 631 0 l 244 0 q 193 11 217 0 q 150 39 168 21 q 122 81 132 57 q 111 134 111 106 l 111 589 q 122 641 111 616 q 150 683 132 665 q 193 712 168 701 q 244 722 217 722 l 603 722 q 655 712 631 722 q 697 683 679 701 q 725 641 715 665 q 736 589 736 616 l 736 134 m 244 589 l 244 134 l 603 134 l 603 589 l 244 589 m 546 847 l 418 847 l 189 1000 l 392 1000 l 546 847 z "},"ó":{"ha":847,"x_min":111,"x_max":736,"o":"m 736 134 q 725 81 736 106 q 697 39 715 57 q 655 11 679 21 q 603 0 631 0 l 244 0 q 193 11 217 0 q 150 39 168 21 q 122 81 132 57 q 111 134 111 106 l 111 589 q 122 641 111 616 q 150 683 132 665 q 193 712 168 701 q 244 722 217 722 l 603 722 q 655 712 631 722 q 697 683 679 701 q 725 641 715 665 q 736 589 736 616 l 736 134 m 244 589 l 244 134 l 603 134 l 603 589 l 244 589 m 454 1000 l 657 1000 l 428 847 l 300 847 l 454 1000 z "},"ô":{"ha":847,"x_min":111,"x_max":736,"o":"m 736 134 q 725 81 736 106 q 697 39 715 57 q 655 11 679 21 q 603 0 631 0 l 244 0 q 193 11 217 0 q 150 39 168 21 q 122 81 132 57 q 111 134 111 106 l 111 589 q 122 641 111 616 q 150 683 132 665 q 193 712 168 701 q 244 722 217 722 l 603 722 q 655 712 631 722 q 697 683 679 701 q 725 641 715 665 q 736 589 736 616 l 736 134 m 244 589 l 244 134 l 603 134 l 603 589 l 244 589 m 668 847 l 526 847 l 424 939 l 321 847 l 179 847 l 340 1014 l 507 1014 l 668 847 z "},"õ":{"ha":847,"x_min":111,"x_max":736,"o":"m 736 134 q 725 81 736 106 q 697 39 715 57 q 655 11 679 21 q 603 0 631 0 l 244 0 q 193 11 217 0 q 150 39 168 21 q 122 81 132 57 q 111 134 111 106 l 111 589 q 122 641 111 616 q 150 683 132 665 q 193 712 168 701 q 244 722 217 722 l 603 722 q 655 712 631 722 q 697 683 679 701 q 725 641 715 665 q 736 589 736 616 l 736 134 m 244 589 l 244 134 l 603 134 l 603 589 l 244 589 m 158 848 q 170 916 158 884 q 204 970 182 947 q 257 1006 227 993 q 323 1019 287 1019 q 388 1009 361 1019 q 437 985 414 998 q 480 962 459 972 q 529 951 502 951 q 576 972 559 951 q 596 1019 593 992 l 689 1019 q 676 952 688 983 q 642 898 664 921 q 590 862 621 875 q 524 848 560 848 q 478 853 498 848 q 441 866 458 859 q 410 883 425 873 q 381 899 395 892 q 351 912 366 907 q 318 917 336 917 q 271 897 289 917 q 252 848 254 876 l 158 848 z "},"ö":{"ha":847,"x_min":111,"x_max":736,"o":"m 736 134 q 725 81 736 106 q 697 39 715 57 q 655 11 679 21 q 603 0 631 0 l 244 0 q 193 11 217 0 q 150 39 168 21 q 122 81 132 57 q 111 134 111 106 l 111 589 q 122 641 111 616 q 150 683 132 665 q 193 712 168 701 q 244 722 217 722 l 603 722 q 655 712 631 722 q 697 683 679 701 q 725 641 715 665 q 736 589 736 616 l 736 134 m 244 589 l 244 134 l 603 134 l 603 589 l 244 589 m 490 994 l 637 994 l 637 847 l 490 847 l 490 994 m 208 994 l 355 994 l 355 847 l 208 847 l 208 994 z "},"÷":{"ha":981,"x_min":111,"x_max":869,"o":"m 111 458 l 869 458 l 869 325 l 111 325 l 111 458 m 399 761 l 582 761 l 582 578 l 399 578 l 399 761 m 399 205 l 582 205 l 582 22 l 399 22 l 399 205 z "},"ø":{"ha":847,"x_min":111,"x_max":736,"o":"m 736 134 q 725 81 736 106 q 697 39 715 57 q 655 11 679 21 q 603 0 631 0 l 285 0 l 211 -139 l 111 -139 l 191 11 q 133 60 155 26 q 111 134 111 93 l 111 589 q 122 641 111 616 q 150 683 132 665 q 193 712 168 701 q 244 722 217 722 l 564 722 l 629 847 l 736 847 l 663 708 q 715 660 695 692 q 736 589 736 627 l 736 134 m 244 134 l 254 134 l 493 589 l 244 589 l 244 134 m 599 589 l 355 134 l 603 134 l 603 589 l 599 589 z "},"ù":{"ha":861,"x_min":111,"x_max":750,"o":"m 111 722 l 244 722 l 244 134 l 616 134 l 616 722 l 750 722 l 750 0 l 616 0 l 616 122 q 603 75 614 97 q 573 36 591 52 q 532 9 555 19 q 484 0 509 0 l 244 0 q 193 11 217 0 q 150 39 168 21 q 122 81 132 57 q 111 134 111 106 l 111 722 m 532 847 l 404 847 l 175 1000 l 378 1000 l 532 847 z "},"ú":{"ha":861,"x_min":111,"x_max":750,"o":"m 111 722 l 244 722 l 244 134 l 616 134 l 616 722 l 750 722 l 750 0 l 616 0 l 616 122 q 603 75 614 97 q 573 36 591 52 q 532 9 555 19 q 484 0 509 0 l 244 0 q 193 11 217 0 q 150 39 168 21 q 122 81 132 57 q 111 134 111 106 l 111 722 m 468 1000 l 671 1000 l 441 847 l 314 847 l 468 1000 z "},"û":{"ha":861,"x_min":111,"x_max":750,"o":"m 111 722 l 244 722 l 244 134 l 616 134 l 616 722 l 750 722 l 750 0 l 616 0 l 616 122 q 603 75 614 97 q 573 36 591 52 q 532 9 555 19 q 484 0 509 0 l 244 0 q 193 11 217 0 q 150 39 168 21 q 122 81 132 57 q 111 134 111 106 l 111 722 m 668 847 l 526 847 l 424 939 l 321 847 l 179 847 l 340 1014 l 507 1014 l 668 847 z "},"ü":{"ha":861,"x_min":111,"x_max":750,"o":"m 111 722 l 244 722 l 244 134 l 616 134 l 616 722 l 750 722 l 750 0 l 616 0 l 616 122 q 603 75 614 97 q 573 36 591 52 q 532 9 555 19 q 484 0 509 0 l 244 0 q 193 11 217 0 q 150 39 168 21 q 122 81 132 57 q 111 134 111 106 l 111 722 m 208 994 l 355 994 l 355 847 l 208 847 l 208 994 m 490 994 l 637 994 l 637 847 l 490 847 l 490 994 z "},"ý":{"ha":758,"x_min":28,"x_max":730,"o":"m 160 -292 l 311 65 l 28 722 l 168 722 l 379 225 l 590 722 l 730 722 l 293 -292 l 160 -292 m 437 1000 l 640 1000 l 411 847 l 283 847 l 437 1000 z "},"þ":{"ha":861,"x_min":111,"x_max":750,"o":"m 750 134 q 740 81 750 106 q 711 39 729 57 q 669 11 693 21 q 616 0 644 0 l 244 0 l 244 -292 l 111 -292 l 111 1000 l 244 1000 l 244 600 q 258 648 246 626 q 287 687 269 670 q 328 713 304 703 q 378 722 351 722 l 616 722 q 669 712 644 722 q 711 683 693 701 q 740 641 729 665 q 750 589 750 616 l 750 134 m 616 134 l 616 589 l 244 589 l 244 134 l 616 134 z "},"ÿ":{"ha":758,"x_min":28,"x_max":730,"o":"m 160 -292 l 311 65 l 28 722 l 168 722 l 379 225 l 590 722 l 730 722 l 293 -292 l 160 -292 m 446 994 l 593 994 l 593 847 l 446 847 l 446 994 m 164 994 l 311 994 l 311 847 l 164 847 l 164 994 z "},"ħ":{"ha":861,"x_min":0,"x_max":750,"o":"m 0 901 l 111 901 l 111 1000 l 244 1000 l 244 901 l 529 901 l 529 817 l 244 817 l 244 600 q 258 648 246 626 q 287 687 269 670 q 328 713 304 703 q 378 722 351 722 l 616 722 q 669 712 644 722 q 711 683 693 701 q 740 641 729 665 q 750 589 750 616 l 750 0 l 616 0 l 616 589 l 244 589 l 244 0 l 111 0 l 111 817 l 0 817 l 0 901 z "},"Ĩ":{"ha":389,"x_min":-71,"x_max":460,"o":"m 264 972 l 264 0 l 125 0 l 125 972 l 264 972 m -71 1099 q -58 1166 -71 1135 q -24 1220 -46 1197 q 27 1256 -3 1243 q 94 1270 58 1270 q 159 1259 132 1270 q 208 1236 185 1249 q 251 1212 230 1223 q 300 1202 273 1202 q 347 1222 330 1202 q 367 1270 365 1242 l 460 1270 q 447 1202 459 1234 q 413 1148 435 1171 q 361 1112 391 1125 q 294 1099 331 1099 q 230 1109 256 1099 q 181 1133 203 1120 q 137 1156 159 1145 q 89 1166 116 1166 q 42 1146 60 1166 q 22 1099 24 1126 l -71 1099 z "},"ĩ":{"ha":370,"x_min":-81,"x_max":450,"o":"m 252 722 l 252 0 l 118 0 l 118 722 l 252 722 m -81 848 q -68 916 -81 884 q -34 970 -56 947 q 18 1006 -12 993 q 85 1019 48 1019 q 149 1009 122 1019 q 198 985 176 998 q 242 962 220 972 q 290 951 263 951 q 337 972 319 951 q 357 1019 355 992 l 450 1019 q 437 952 450 983 q 404 898 425 921 q 352 862 382 875 q 285 848 321 848 q 220 859 247 848 q 171 883 193 870 q 127 906 149 895 q 79 917 106 917 q 32 897 50 917 q 12 848 15 876 l -81 848 z "},"ı":{"ha":370,"x_min":118,"x_max":252,"o":"m 252 722 l 252 0 l 118 0 l 118 722 l 252 722 z "},"Ĳ":{"ha":1282,"x_min":125,"x_max":1157,"o":"m 264 972 l 264 0 l 125 0 l 125 972 l 264 972 m 486 306 l 625 306 l 625 139 l 1018 139 l 1018 972 l 1157 972 l 1157 139 q 1146 85 1157 111 q 1116 41 1135 60 q 1072 11 1097 22 q 1018 0 1046 0 l 625 0 q 571 11 597 0 q 527 41 546 22 q 497 85 508 60 q 486 139 486 111 l 486 306 z "},"ĳ":{"ha":739,"x_min":111,"x_max":628,"o":"m 252 722 l 252 0 l 118 0 l 118 722 l 252 722 m 111 1000 l 258 1000 l 258 861 l 111 861 l 111 1000 m 488 -158 l 488 722 l 621 722 l 621 -158 q 610 -210 621 -186 q 582 -253 600 -235 q 539 -281 564 -271 q 488 -292 515 -292 l 383 -292 l 383 -158 l 488 -158 m 481 1000 l 628 1000 l 628 861 l 481 861 l 481 1000 z "},"Ĵ":{"ha":893,"x_min":97,"x_max":942,"o":"m 97 306 l 236 306 l 236 139 l 629 139 l 629 972 l 768 972 l 768 139 q 757 85 768 111 q 727 41 746 60 q 683 11 709 22 q 629 0 658 0 l 236 0 q 182 11 208 0 q 138 41 157 22 q 108 85 119 60 q 97 139 97 111 l 97 306 m 942 1097 l 800 1097 l 697 1189 l 595 1097 l 453 1097 l 614 1264 l 781 1264 l 942 1097 z "},"ĵ":{"ha":370,"x_min":-60,"x_max":429,"o":"m 118 -158 l 118 722 l 252 722 l 252 -158 q 241 -210 252 -186 q 213 -253 231 -235 q 170 -281 195 -271 q 118 -292 146 -292 l 14 -292 l 14 -158 l 118 -158 m 429 847 l 288 847 l 184 939 l 82 847 l -60 847 l 102 1014 l 268 1014 l 429 847 z "},"ķ":{"ha":762,"x_min":111,"x_max":777,"o":"m 589 0 l 244 309 l 244 0 l 111 0 l 111 1000 l 244 1000 l 244 437 l 561 722 l 749 722 l 361 374 l 777 0 l 589 0 m 378 -549 l 279 -549 l 379 -342 l 279 -342 l 279 -139 l 482 -139 l 482 -342 l 378 -549 z "},"ĸ":{"ha":762,"x_min":111,"x_max":777,"o":"m 589 0 l 244 309 l 244 0 l 111 0 l 111 721 l 244 721 l 244 437 l 561 722 l 749 722 l 361 374 l 777 0 l 589 0 z "},"Ŀ":{"ha":806,"x_min":125,"x_max":764,"o":"m 264 972 l 264 139 l 764 139 l 764 0 l 125 0 l 125 972 l 264 972 m 432 624 l 607 624 l 607 449 l 432 449 l 432 624 z "},"ŀ":{"ha":663,"x_min":111,"x_max":579,"o":"m 244 1000 l 244 0 l 111 0 l 111 1000 l 244 1000 m 404 624 l 579 624 l 579 449 l 404 449 l 404 624 z "},"Ł":{"ha":833,"x_min":28,"x_max":791,"o":"m 292 972 l 292 543 l 533 627 l 533 511 l 292 428 l 292 139 l 791 139 l 791 0 l 153 0 l 153 380 l 28 338 l 28 453 l 153 496 l 153 972 l 292 972 z "},"ł":{"ha":461,"x_min":28,"x_max":433,"o":"m 297 1000 l 297 558 l 433 616 l 433 497 l 297 439 l 297 0 l 164 0 l 164 382 l 28 323 l 28 443 l 164 501 l 164 1000 l 297 1000 z "},"Ń":{"ha":1112,"x_min":125,"x_max":987,"o":"m 264 0 l 125 0 l 125 972 l 264 972 l 848 218 l 848 972 l 987 972 l 987 0 l 848 0 l 264 754 l 264 0 m 602 1250 l 804 1250 l 575 1097 l 447 1097 l 602 1250 z "},"ń":{"ha":861,"x_min":111,"x_max":750,"o":"m 750 0 l 616 0 l 616 589 l 244 589 l 244 0 l 111 0 l 111 722 l 244 722 l 244 595 q 256 645 245 621 q 285 685 267 668 q 327 712 303 703 q 378 722 351 722 l 616 722 q 669 712 644 722 q 711 683 693 701 q 740 641 729 665 q 750 589 750 616 l 750 0 m 461 1000 l 664 1000 l 435 847 l 307 847 l 461 1000 z "},"Œ":{"ha":1541,"x_min":125,"x_max":1458,"o":"m 125 833 q 136 887 125 862 q 165 931 146 913 q 210 961 184 950 q 264 972 235 972 l 1458 972 l 1458 833 l 889 833 l 889 555 l 1375 555 l 1375 416 l 889 416 l 889 139 l 1458 139 l 1458 0 l 264 0 q 210 11 235 0 q 165 41 184 22 q 136 85 146 60 q 125 139 125 111 l 125 833 m 264 833 l 264 139 l 750 139 l 750 833 l 264 833 z "},"œ":{"ha":1325,"x_min":111,"x_max":1214,"o":"m 111 589 q 122 641 111 616 q 150 683 132 665 q 193 712 168 701 q 244 722 217 722 l 547 722 q 621 700 588 722 q 669 642 654 677 q 717 700 685 677 q 791 722 749 722 l 1080 722 q 1133 712 1108 722 q 1175 683 1157 701 q 1203 641 1193 665 q 1214 589 1214 616 l 1214 293 l 736 293 l 736 134 l 1214 134 l 1214 0 l 791 0 q 717 22 749 0 q 669 79 685 43 q 621 22 654 43 q 547 0 588 0 l 244 0 q 193 11 217 0 q 150 39 168 21 q 122 81 132 57 q 111 134 111 106 l 111 589 m 244 589 l 244 134 l 603 134 l 603 589 l 244 589 m 736 589 l 736 427 l 1080 427 l 1080 589 l 736 589 z "},"Ŕ":{"ha":1000,"x_min":125,"x_max":903,"o":"m 893 625 q 720 393 893 422 l 903 0 l 749 0 l 568 389 l 264 389 l 264 0 l 125 0 l 125 972 l 657 972 q 893 736 893 972 l 893 625 m 264 528 l 650 528 q 730 552 705 528 q 754 632 754 576 l 754 729 q 730 809 754 785 q 650 833 705 833 l 264 833 l 264 528 m 530 1250 l 733 1250 l 504 1097 l 376 1097 l 530 1250 z "},"Ŗ":{"ha":1000,"x_min":125,"x_max":903,"o":"m 893 625 q 720 393 893 422 l 903 0 l 749 0 l 568 389 l 264 389 l 264 0 l 125 0 l 125 972 l 657 972 q 893 736 893 972 l 893 625 m 264 528 l 650 528 q 730 552 705 528 q 754 632 754 576 l 754 729 q 730 809 754 785 q 650 833 705 833 l 264 833 l 264 528 m 497 -549 l 399 -549 l 498 -342 l 399 -342 l 399 -139 l 602 -139 l 602 -342 l 497 -549 z "},"ŗ":{"ha":708,"x_min":111,"x_max":653,"o":"m 244 589 l 244 0 l 111 0 l 111 722 l 244 722 l 244 595 q 256 645 245 621 q 285 685 267 668 q 327 712 303 703 q 378 722 351 722 l 519 722 q 571 712 547 722 q 614 683 595 701 q 643 641 632 665 q 653 589 653 616 l 653 467 l 519 467 l 519 589 l 244 589 m 210 -549 l 111 -549 l 211 -342 l 111 -342 l 111 -139 l 314 -139 l 314 -342 l 210 -549 z "},"Ř":{"ha":1000,"x_min":125,"x_max":903,"o":"m 893 625 q 720 393 893 422 l 903 0 l 749 0 l 568 389 l 264 389 l 264 0 l 125 0 l 125 972 l 657 972 q 893 736 893 972 l 893 625 m 264 528 l 650 528 q 730 552 705 528 q 754 632 754 576 l 754 729 q 730 809 754 785 q 650 833 705 833 l 264 833 l 264 528 m 256 1264 l 397 1264 l 500 1171 l 603 1264 l 745 1264 l 583 1097 l 416 1097 l 256 1264 z "},"ř":{"ha":708,"x_min":111,"x_max":653,"o":"m 244 589 l 244 0 l 111 0 l 111 722 l 244 722 l 244 595 q 256 645 245 621 q 285 685 267 668 q 327 712 303 703 q 378 722 351 722 l 519 722 q 571 712 547 722 q 614 683 595 701 q 643 641 632 665 q 653 589 653 616 l 653 467 l 519 467 l 519 589 l 244 589 m 138 1014 l 279 1014 l 382 921 l 485 1014 l 627 1014 l 465 847 l 298 847 l 138 1014 z "},"Š":{"ha":1000,"x_min":111,"x_max":875,"o":"m 264 416 q 210 428 235 416 q 165 457 184 439 q 136 502 146 476 q 125 555 125 527 l 125 833 q 136 887 125 862 q 165 931 146 913 q 210 961 184 950 q 264 972 235 972 l 736 972 q 790 961 764 972 q 834 931 815 950 q 864 887 853 913 q 875 833 875 862 l 875 708 l 736 708 l 736 833 l 264 833 l 264 555 l 736 555 q 790 545 764 555 q 834 515 815 534 q 864 470 853 496 q 875 416 875 445 l 875 139 q 864 85 875 111 q 834 41 853 60 q 790 11 815 22 q 736 0 764 0 l 250 0 q 196 11 222 0 q 152 41 171 22 q 122 85 133 60 q 111 139 111 111 l 111 264 l 250 264 l 250 139 l 736 139 l 736 416 l 264 416 m 256 1264 l 397 1264 l 500 1171 l 603 1264 l 745 1264 l 583 1097 l 416 1097 l 256 1264 z "},"š":{"ha":778,"x_min":97,"x_max":681,"o":"m 547 134 l 547 301 l 231 301 q 178 312 203 301 q 136 340 154 322 q 107 382 118 358 q 97 435 97 407 l 97 589 q 107 641 97 616 q 136 683 118 665 q 178 712 154 701 q 231 722 203 722 l 653 722 l 653 589 l 231 589 l 231 435 l 547 435 q 599 424 575 435 q 642 396 623 414 q 670 353 660 378 q 681 301 681 329 l 681 134 q 670 81 681 106 q 642 39 660 57 q 599 11 623 21 q 547 0 575 0 l 97 0 l 97 134 l 547 134 m 144 1014 l 286 1014 l 389 921 l 492 1014 l 633 1014 l 472 847 l 306 847 l 144 1014 z "},"Ÿ":{"ha":945,"x_min":28,"x_max":917,"o":"m 189 972 l 472 518 l 755 972 l 917 972 l 542 386 l 542 0 l 403 0 l 403 386 l 28 972 l 189 972 m 539 1244 l 686 1244 l 686 1097 l 539 1097 l 539 1244 m 257 1244 l 404 1244 l 404 1097 l 257 1097 l 257 1244 z "},"Ž":{"ha":950,"x_min":83,"x_max":867,"o":"m 103 972 l 867 972 l 867 930 l 315 139 l 867 139 l 867 0 l 83 0 l 83 41 l 635 833 l 103 833 l 103 972 m 231 1264 l 372 1264 l 475 1171 l 578 1264 l 720 1264 l 558 1097 l 392 1097 l 231 1264 z "},"ž":{"ha":778,"x_min":83,"x_max":694,"o":"m 97 722 l 694 722 l 694 686 l 310 134 l 694 134 l 694 0 l 83 0 l 83 36 l 468 589 l 97 589 l 97 722 m 144 1014 l 286 1014 l 389 921 l 492 1014 l 633 1014 l 472 847 l 306 847 l 144 1014 z "},"ƒ":{"ha":681,"x_min":-69,"x_max":667,"o":"m 449 867 l 408 639 l 604 639 l 581 505 l 385 505 l 267 -158 q 247 -210 262 -186 q 212 -253 233 -235 q 165 -281 191 -271 q 111 -292 139 -292 l -69 -292 l -47 -158 l 134 -158 l 252 505 l 89 505 l 113 639 l 275 639 l 315 867 q 335 919 320 895 q 370 961 349 943 q 417 990 391 979 q 471 1000 444 1000 l 667 1000 l 644 867 l 449 867 z "},"ˆ":{"ha":656,"x_min":83,"x_max":572,"o":"m 572 847 l 431 847 l 328 939 l 225 847 l 83 847 l 244 1014 l 411 1014 l 572 847 z "},"ˇ":{"ha":656,"x_min":83,"x_max":572,"o":"m 83 1014 l 225 1014 l 328 921 l 431 1014 l 572 1014 l 411 847 l 244 847 l 83 1014 z "},"˘":{"ha":653,"x_min":83,"x_max":570,"o":"m 570 1059 q 544 973 565 1013 q 491 904 524 933 q 416 857 458 874 q 326 840 374 840 q 238 857 279 840 q 163 904 196 874 q 110 973 131 933 q 83 1059 89 1013 l 196 1059 q 212 1016 201 1036 q 241 982 224 996 q 280 960 258 968 q 326 951 302 951 q 372 960 350 951 q 411 982 393 968 q 440 1016 428 996 q 457 1059 452 1036 l 570 1059 z "},"˙":{"ha":342,"x_min":83,"x_max":258,"o":"m 83 1022 l 258 1022 l 258 847 l 83 847 l 83 1022 z "},"˚":{"ha":694,"x_min":139,"x_max":514,"o":"m 139 1000 q 154 1074 139 1040 q 193 1133 168 1108 q 253 1173 218 1158 q 326 1187 287 1187 q 400 1173 366 1187 q 460 1133 435 1158 q 499 1074 485 1108 q 514 1000 514 1040 q 499 926 514 961 q 460 867 485 892 q 400 827 435 842 q 326 812 366 812 q 253 827 287 812 q 193 867 218 842 q 154 926 168 892 q 139 1000 139 961 m 237 1000 q 244 965 237 981 q 263 936 251 948 q 292 916 275 923 q 326 908 308 908 q 361 916 345 908 q 390 936 378 923 q 408 965 401 948 q 415 1000 415 981 q 408 1035 415 1019 q 390 1064 401 1052 q 361 1084 378 1077 q 326 1092 345 1092 q 292 1084 308 1092 q 263 1064 275 1077 q 244 1035 251 1052 q 237 1000 237 1019 z "},"˛":{"ha":456,"x_min":83,"x_max":372,"o":"m 257 0 q 229 -57 241 -28 q 209 -112 218 -82 q 200 -171 200 -142 q 217 -233 200 -210 q 272 -256 233 -256 q 311 -250 293 -256 q 343 -237 330 -245 q 372 -218 359 -229 l 372 -314 q 335 -338 356 -328 q 292 -355 317 -348 q 236 -363 267 -363 q 177 -352 205 -363 q 129 -322 149 -342 q 96 -273 108 -302 q 83 -205 83 -243 q 95 -126 83 -163 q 121 -60 106 -89 q 158 0 138 -28 l 257 0 z "},"˜":{"ha":697,"x_min":83,"x_max":614,"o":"m 83 848 q 96 916 83 884 q 130 970 108 947 q 182 1006 151 993 q 249 1019 212 1019 q 313 1009 286 1019 q 362 985 340 998 q 406 962 385 972 q 454 951 427 951 q 501 972 484 951 q 521 1019 519 992 l 614 1019 q 601 952 613 983 q 567 898 589 921 q 515 862 545 875 q 449 848 486 848 q 384 859 411 848 q 335 883 357 870 q 291 906 313 895 q 243 917 270 917 q 196 897 214 917 q 176 848 178 876 l 83 848 z "},"˝":{"ha":819,"x_min":83,"x_max":736,"o":"m 237 1000 l 440 1000 l 211 847 l 83 847 l 237 1000 m 533 1000 l 736 1000 l 507 847 l 379 847 l 533 1000 z "},"̇":{"ha":342,"x_min":83,"x_max":258,"o":"m 83 1022 l 258 1022 l 258 847 l 83 847 l 83 1022 z "},"–":{"ha":1114,"x_min":125,"x_max":989,"o":"m 125 458 l 989 458 l 989 325 l 125 325 l 125 458 z "},"—":{"ha":1389,"x_min":125,"x_max":1264,"o":"m 125 458 l 1264 458 l 1264 325 l 125 325 l 125 458 z "},"‘":{"ha":425,"x_min":111,"x_max":314,"o":"m 215 972 l 314 972 l 214 765 l 314 765 l 314 562 l 111 562 l 111 765 l 215 972 z "},"’":{"ha":397,"x_min":111,"x_max":314,"o":"m 210 562 l 111 562 l 211 770 l 111 770 l 111 972 l 314 972 l 314 770 l 210 562 z "},"‚":{"ha":425,"x_min":111,"x_max":314,"o":"m 210 -207 l 111 -207 l 211 0 l 111 0 l 111 203 l 314 203 l 314 0 l 210 -207 z "},"“":{"ha":697,"x_min":111,"x_max":586,"o":"m 488 972 l 586 972 l 486 765 l 586 765 l 586 562 l 383 562 l 383 765 l 488 972 m 215 972 l 314 972 l 214 765 l 314 765 l 314 562 l 111 562 l 111 765 l 215 972 z "},"”":{"ha":697,"x_min":111,"x_max":586,"o":"m 210 562 l 111 562 l 211 770 l 111 770 l 111 972 l 314 972 l 314 770 l 210 562 m 482 562 l 383 562 l 484 770 l 383 770 l 383 972 l 586 972 l 586 770 l 482 562 z "},"„":{"ha":697,"x_min":111,"x_max":586,"o":"m 210 -207 l 111 -207 l 211 0 l 111 0 l 111 203 l 314 203 l 314 0 l 210 -207 m 482 -207 l 383 -207 l 484 0 l 383 0 l 383 203 l 586 203 l 586 0 l 482 -207 z "},"†":{"ha":842,"x_min":83,"x_max":758,"o":"m 488 972 l 488 694 l 758 694 l 758 561 l 488 561 l 488 -292 l 354 -292 l 354 561 l 83 561 l 83 694 l 354 694 l 354 972 l 488 972 z "},"‡":{"ha":842,"x_min":83,"x_max":758,"o":"m 488 972 l 488 694 l 758 694 l 758 561 l 488 561 l 488 119 l 758 119 l 758 -14 l 488 -14 l 488 -292 l 354 -292 l 354 -14 l 83 -14 l 83 119 l 354 119 l 354 561 l 83 561 l 83 694 l 354 694 l 354 972 l 488 972 z "},"•":{"ha":650,"x_min":83,"x_max":567,"o":"m 83 481 q 102 575 83 531 q 154 651 121 618 q 231 703 187 684 q 325 722 275 722 q 419 703 375 722 q 496 651 463 684 q 548 575 529 618 q 567 481 567 531 q 548 387 567 431 q 496 310 529 342 q 419 258 463 277 q 325 239 375 239 q 231 258 275 239 q 154 310 187 277 q 102 387 121 342 q 83 481 83 431 z "},"…":{"ha":1108,"x_min":111,"x_max":997,"o":"m 111 203 l 314 203 l 314 0 l 111 0 l 111 203 m 453 203 l 656 203 l 656 0 l 453 0 l 453 203 m 794 203 l 997 203 l 997 0 l 794 0 l 794 203 z "},"‹":{"ha":469,"x_min":69,"x_max":372,"o":"m 69 339 l 372 636 l 372 497 l 203 318 l 372 139 l 372 0 l 69 297 l 69 339 z "},"›":{"ha":469,"x_min":97,"x_max":400,"o":"m 400 297 l 97 0 l 97 139 l 267 318 l 97 497 l 97 636 l 400 339 l 400 297 z "},"⁄":{"ha":787,"x_min":14,"x_max":774,"o":"m 14 0 l 659 972 l 774 972 l 122 0 l 14 0 z "},"€":{"ha":1090,"x_min":41,"x_max":993,"o":"m 41 644 l 187 644 l 187 833 q 198 887 187 862 q 228 931 210 913 q 272 961 247 950 q 326 972 298 972 l 854 972 q 908 961 883 972 q 952 931 933 950 q 982 887 971 913 q 993 833 993 862 l 993 736 l 854 736 l 854 833 l 326 833 l 326 644 l 808 644 l 728 532 l 326 532 l 326 440 l 659 440 l 578 328 l 326 328 l 326 139 l 854 139 l 854 236 l 993 236 l 993 139 q 982 85 993 111 q 952 41 971 60 q 908 11 933 22 q 854 0 883 0 l 326 0 q 272 11 298 0 q 228 41 247 22 q 198 85 210 60 q 187 139 187 111 l 187 328 l 41 328 l 41 440 l 187 440 l 187 532 l 41 532 l 41 644 z "},"™":{"ha":1247,"x_min":69,"x_max":1122,"o":"m 828 505 l 668 786 l 668 505 l 571 505 l 571 972 l 669 972 l 846 659 l 1023 972 l 1122 972 l 1122 505 l 1025 505 l 1025 786 l 865 505 l 828 505 m 69 972 l 486 972 l 486 882 l 326 882 l 326 505 l 229 505 l 229 882 l 69 882 l 69 972 z "},"−":{"ha":981,"x_min":111,"x_max":869,"o":"m 111 458 l 869 458 l 869 325 l 111 325 l 111 458 z "},"":{"ha":370,"x_min":14,"x_max":252,"o":"m 118 -158 l 118 722 l 252 722 l 252 -158 q 241 -210 252 -186 q 213 -253 231 -235 q 170 -281 195 -271 q 118 -292 146 -292 l 14 -292 l 14 -158 l 118 -158 z "},"":{"ha":370,"x_min":83,"x_max":286,"o":"m 182 -549 l 83 -549 l 183 -342 l 83 -342 l 83 -139 l 286 -139 l 286 -342 l 182 -549 z "},"\"":{"ha":681,"x_min":111,"x_max":570,"o":"m 248 517 l 155 517 l 111 825 l 111 972 l 292 972 l 292 825 l 248 517 m 525 517 l 433 517 l 389 825 l 389 972 l 570 972 l 570 825 l 525 517 z "},"!":{"ha":397,"x_min":97,"x_max":300,"o":"m 160 361 l 104 972 l 293 972 l 237 361 l 160 361 m 97 203 l 300 203 l 300 0 l 97 0 l 97 203 z "}}}
